<?xml version="1.0" standalone="no"?>
<!DOCTYPE svg PUBLIC "-//W3C//DTD SVG 1.1//EN" "http://www.w3.org/Graphics/SVG/1.1/DTD/svg11.dtd" >
<svg>
<metadata>
Created by FontForge 20120731 at Wed Mar 16 17:11:09 2016
 By ,,,
(c) 1999 Ray Larabie. This font is freeware. Read attached text file for details. Info &#38; updates visit www.larabiefonts.com. Donations gratefully accepted at www.larabiefonts.com/donation.html. Also visit my commercial type foundry at www.typodermic.com. This font was updated in 2005.
</metadata>
<defs>
<font id="Euphorigenic" horiz-adv-x="471" >
  <font-face 
    font-family="Euphorigenic"
    font-weight="400"
    font-stretch="normal"
    units-per-em="1000"
    panose-1="2 0 4 0 0 0 0 0 0 0"
    ascent="800"
    descent="-200"
    x-height="445"
    cap-height="683"
    bbox="-136 -332 1270 825"
    underline-thickness="20"
    underline-position="-123"
    unicode-range="U+0020-2122"
  />
<missing-glyph horiz-adv-x="225" 
 />
    <glyph glyph-name=".notdef" horiz-adv-x="225" 
 />
    <glyph glyph-name=".null" horiz-adv-x="0" 
 />
    <glyph glyph-name="nonmarkingreturn" horiz-adv-x="225" 
 />
    <glyph glyph-name="space" unicode=" " horiz-adv-x="225" 
 />
    <glyph glyph-name="space" unicode="&#xa0;" horiz-adv-x="225" 
 />
    <glyph glyph-name="dollar" unicode="$" horiz-adv-x="344" 
d="M144 19v96q-51 0 -84 31t-47 82l31 9q10 -35 35.5 -57.5t66.5 -22.5v146q-28 13 -50 25t-37.5 26.5t-23.5 34t-8 48.5q0 48 31.5 81t86.5 38q0 28 -3 114h42q-2 -19 -3.5 -47.5t-1.5 -67.5q26 -5 59 -32v42h38v-128h-38q0 66 -60 77v-130q28 -12 51.5 -21t40.5 -21.5
t26.5 -33t9.5 -56.5q0 -24 -9.5 -46t-26.5 -40t-40 -30.5t-51 -17.5q3 -87 3 -99h-38zM209 228q0 32 -31 57v-59t1 -58q30 19 30 60zM116 459q0 -35 29 -58v110q-29 -11 -29 -52z" />
    <glyph glyph-name="percent" unicode="%" horiz-adv-x="519" 
d="M375 278q22 0 41 -11.5t33.5 -30.5t22.5 -43.5t8 -50.5v-31q0 -26 -8 -50.5t-22.5 -43.5t-33.5 -30.5t-41 -11.5q-23 0 -42 11.5t-33 30t-22 43t-8 51.5v31q0 27 8 51.5t22 43t33 30t42 11.5zM375 249q-19 0 -30.5 -16.5t-11.5 -36.5v-139q0 -21 12.5 -37t29.5 -16t29 16
t12 37v139q0 20 -11.5 36.5t-29.5 16.5zM407 680q-89 -207 -157.5 -382t-119.5 -323h-45q5 12 19 46.5t33.5 83t42.5 106.5t46.5 118.5t46.5 118.5t41.5 106t31 81.5t16.5 44.5h45zM120 663q22 0 41 -11.5t33.5 -30.5t22.5 -43.5t8 -50.5v-31q0 -26 -8 -50.5t-22.5 -43.5
t-33.5 -30.5t-41 -11.5q-23 0 -42 11.5t-33 30t-22 43t-8 51.5v31q0 27 8 51.5t22 43t33 30t42 11.5zM120 634q-19 0 -30.5 -16.5t-11.5 -36.5v-139q0 -21 12.5 -37t29.5 -16t29 16t12 37v139q0 20 -11.5 36.5t-29.5 16.5z" />
    <glyph glyph-name="ampersand" unicode="&#x26;" horiz-adv-x="436" 
d="M180 682q20 0 38.5 -10t33 -25.5t23.5 -35.5t9 -41q0 -25 -3.5 -46t-14 -42.5t-29 -47.5t-47.5 -62q25 -58 53.5 -111.5t57.5 -97.5t56 -75t48 -43v-42q-37 15 -100 78q-41 -78 -125 -78q-33 0 -62 15.5t-50.5 41.5t-34 60t-12.5 71q0 138 84 207q-38 96 -38 152
q0 63 29.5 97.5t83.5 34.5zM169 645q-19 0 -30.5 -17t-11.5 -36q0 -52 35 -151q61 48 61 129q0 32 -14.5 53.5t-39.5 21.5zM288 99q-79 83 -144 212q-27 -47 -27 -129q0 -62 17 -99.5t46 -37.5q15 0 30.5 4t30.5 11t27 17t20 22z" />
    <glyph glyph-name="quotesingle" unicode="'" horiz-adv-x="153" 
d="M62 683q40 0 40 -49q0 -11 -5 -31q-27 -107 -27 -157h-14q0 47 -30 157q-5 18 -5 29q0 20 11 35.5t30 15.5z" />
    <glyph glyph-name="parenleft" unicode="(" horiz-adv-x="224" 
d="M196 636q-51 -15 -83 -65q-28 -46 -28 -102v-451q0 -51 31 -89t80 -53v-46q-92 5 -143 84q-44 70 -44 166v314q0 107 40 187q51 102 147 102v-47z" />
    <glyph glyph-name="parenright" unicode=")" horiz-adv-x="254" 
d="M204 80q0 -96 -44 -166q-51 -79 -143 -84v46q49 14 80 52.5t31 89.5v451q0 58 -28 102q-32 50 -83 65v47q96 0 147 -102q40 -80 40 -187v-314z" />
    <glyph glyph-name="asterisk" unicode="*" horiz-adv-x="310" 
d="M290 604q0 -11 -10 -19.5t-26 -15.5t-35 -12.5t-38 -10.5q15 -6 33.5 -11.5t35 -12t28 -15t11.5 -20.5q0 -31 -34 -31q-18 0 -33.5 20t-44.5 51q1 -2 4.5 -12t8 -22.5t8 -25t3.5 -19.5q0 -32 -34 -32t-34 32q0 7 3.5 19.5t8 25.5t9 23.5t5.5 13.5q-27 -32 -45 -53
t-35 -21q-35 0 -35 31q0 12 11 20.5t27.5 15t35.5 12t36 11.5q-20 5 -39.5 10.5t-35 12.5t-25.5 15.5t-10 19.5q0 31 34 31q16 0 35.5 -22t46.5 -54q-1 5 -5 16t-8.5 24t-8 26t-3.5 21q0 31 34 31q35 0 35 -31q0 -7 -4 -19.5t-8.5 -25.5t-9 -24t-5.5 -15q24 29 42.5 51
t37.5 22q33 0 33 -31z" />
    <glyph glyph-name="plus" unicode="+" horiz-adv-x="171" 
d="M208 250h-112v-116h-36v116h-113v44h113v101h36v-101h112v-44z" />
    <glyph glyph-name="comma" unicode="," horiz-adv-x="211" 
d="M158 66q0 -16 -4.5 -33.5t-13 -34.5t-19.5 -32t-23 -26q-17 -15 -30 -15l-6 19q48 17 51 59q-13 -5 -23 -5q-24 0 -39 23q-12 19 -12 46t16.5 46t43.5 19t43 -19t16 -47z" />
    <glyph glyph-name="hyphen" unicode="-" horiz-adv-x="157" 
d="M222 244q-48 6 -96 6q-55 0 -110 -6v76q32 -4 60 -6.5t55 -2.5q44 0 91 9v-76z" />
    <glyph glyph-name="period" unicode="." horiz-adv-x="200" 
d="M158 67q0 -27 -17 -47t-42 -20q-26 0 -43 20t-17 47q0 26 17 46t43 20q25 0 42 -20t17 -46z" />
    <glyph glyph-name="slash" unicode="/" horiz-adv-x="253" 
d="M232 730q-51 -244 -88 -451t-60 -381h-49q20 93 41.5 204t45.5 245q22 122 37.5 217.5t23.5 165.5h49z" />
    <glyph glyph-name="zero" unicode="0" horiz-adv-x="444" 
d="M418 241q0 -57 -13 -103t-38.5 -79t-62.5 -51t-86 -18q-52 0 -90.5 18.5t-63.5 52t-37 79.5t-12 101v163q0 67 11 121t35.5 91t63 57t94.5 20q53 0 91 -21.5t62 -59.5t35 -91.5t11 -116.5v-163zM321 479q0 172 -110 172q-27 0 -45.5 -8.5t-30.5 -29t-17.5 -53.5t-5.5 -81
v-300q0 -147 99 -147q54 0 82 39t28 108v300z" />
    <glyph glyph-name="one" unicode="1" horiz-adv-x="192" 
d="M179 0h-179v42h15q24 0 27 28q0 2 1 32.5t2 73.5t2 89t1 79q0 87 -6 221h-42v41q15 1 30.5 7t28 16.5t20.5 24.5t9 29h43v-170q0 -47 -0.5 -81.5t-0.5 -62.5t-0.5 -52t-0.5 -49q0 -45 2 -93.5t10 -115.5q4 -17 38 -17v-42z" />
    <glyph glyph-name="two" unicode="2" horiz-adv-x="342" 
d="M161 694q75 0 118 -44t43 -131q0 -61 -25.5 -110t-74.5 -84q-24 -17 -46 -30t-38.5 -36.5t-26 -65t-9.5 -114.5v-36h153q15 0 21 12.5t6 37.5h33v-92h-291v75q0 59 9.5 99.5t27.5 70t43 52.5t57 46q35 26 55.5 75.5t20.5 135.5q0 19 -6.5 36.5t-17.5 31t-24.5 21.5
t-27.5 8q-58 0 -59 -27q42 -15 42 -63q0 -26 -17 -46t-43 -20q-25 0 -42.5 19t-17.5 44q0 61 38 98t99 37z" />
    <glyph glyph-name="three" unicode="3" horiz-adv-x="336" 
d="M321 189q0 -39 -13.5 -75t-37 -63t-54 -43.5t-64.5 -16.5q-61 0 -99 37t-38 98q0 25 17.5 44t42.5 19q26 0 43 -20t17 -46q0 -50 -42 -63q1 -27 59 -27q14 0 27 6.5t23.5 17.5t16.5 25t6 29v160q0 16 -5.5 30.5t-14.5 25t-21 17t-25 6.5h-41v32h42q10 0 20 6t18 15.5
t12.5 21t4.5 23.5v126q0 15 -4 29t-11.5 25t-18.5 17.5t-25 6.5q-58 0 -59 -27q42 -15 42 -63q0 -26 -17 -46t-43 -20q-25 0 -42.5 19t-17.5 44q0 61 38 98t99 37q36 0 64 -14.5t47 -39.5t29 -58t10 -69v-11q0 -51 -17.5 -87.5t-58.5 -50.5q41 -22 66 -68t25 -107z" />
    <glyph glyph-name="four" unicode="4" horiz-adv-x="363" 
d="M332 304h-57q-1 -51 -2 -89t-1 -67q0 -32 1.5 -52.5t6 -32.5t12.5 -17t20 -5q7 0 11 1v-42h-179v42h12q16 0 23 17t9.5 50t2.5 82t2 113h-189q25 84 42 159t25 142h72q-8 -26 -14.5 -49.5t-13 -52t-14 -66t-16.5 -90.5h108q0 13 -0.5 39t-1.5 58.5t-2 68t-2 68.5t-1.5 60
t-0.5 42h138v-42q-5 1 -8 1h-5q-24 0 -29 -29q0 -2 -1 -31.5t-2 -71t-2 -86.5t-1 -77h57v-43z" />
    <glyph glyph-name="five" unicode="5" horiz-adv-x="353" 
d="M327 188q0 -39 -12 -74.5t-33 -62.5t-50 -42.5t-64 -15.5q-26 0 -50.5 5t-44.5 16t-35.5 30t-24.5 47l20 15q3 -15 18 -28t35 -22.5t42 -15t40 -5.5q26 0 44 24t18 54v155q0 107 -79 107q-32 0 -64 -9.5t-59 -27.5q2 42 3.5 76.5t3 64.5t2.5 57t1 54q0 43 -3 94h265v-103
h-34q-1 61 -24 61h-113q-4 -104 -5.5 -151t-1.5 -55t0.5 -18t1.5 -21q24 7 52 7q36 0 64 -17.5t47.5 -47.5t29.5 -69t10 -82z" />
    <glyph glyph-name="six" unicode="6" horiz-adv-x="363" 
d="M205 380q29 0 53.5 -15.5t42.5 -41t28 -59t10 -69.5q0 -40 -11 -76.5t-31.5 -64.5t-48.5 -44.5t-61 -16.5q-40 0 -70.5 19t-51.5 52t-31.5 78.5t-10.5 98.5q0 73 19 148t52.5 138t79 107.5t97.5 58.5l6 -25q-37 -10 -67 -39.5t-51.5 -74.5t-33.5 -103.5t-14 -127.5
q37 57 94 57zM181 338q-43 0 -71 -43v-39q0 -106 19.5 -163.5t57.5 -57.5q25 0 40 22.5t15 55.5v135q0 90 -61 90z" />
    <glyph glyph-name="seven" unicode="7" horiz-adv-x="309" 
d="M309 683q-12 -28 -32 -70.5t-43 -99.5q-42 -103 -63 -218t-21 -234q0 -76 -48 -76q-23 0 -38 20t-15 46q0 39 10.5 92t31.5 110q4 10 20 45t38 84.5t46.5 109t44.5 119.5h-166q-26 0 -26 -54h-40v126h301z" />
    <glyph glyph-name="eight" unicode="8" horiz-adv-x="363" 
d="M180 694q33 0 59.5 -13.5t45 -37.5t28 -57.5t9.5 -73.5q0 -29 -3 -50t-9.5 -37.5t-18 -29t-29.5 -23.5q77 -50 77 -157q0 -110 -35.5 -167t-123.5 -57t-123.5 57t-35.5 167q0 108 76 157q-17 11 -28.5 23.5t-18.5 29t-9.5 37.5t-2.5 50q0 40 9.5 73.5t28 57.5t45 37.5
t59.5 13.5zM180 652q-26 0 -36 -23.5t-10 -55.5v-104q0 -29 9.5 -52t37.5 -23q24 0 34.5 20.5t10.5 54.5v104q0 33 -11 56t-35 23zM179 351q-30 0 -46 -22t-16 -53v-165q0 -32 18.5 -55t44.5 -23t44 24t18 54v165q0 31 -17 53t-46 22z" />
    <glyph glyph-name="nine" unicode="9" horiz-adv-x="351" 
d="M163 691q39 0 69.5 -14t51.5 -46t32 -83t11 -126q0 -72 -19 -142t-52.5 -127.5t-79 -98t-98.5 -54.5l-5 25q76 20 118.5 98t47.5 218q-39 -57 -95 -57q-29 0 -53 16.5t-42 43.5t-28 62t-10 72q0 104 41 158.5t111 54.5zM163 649q-26 0 -41 -23.5t-15 -55.5v-154
q0 -91 62 -91q41 0 70 44q0 6 0.5 20t0.5 28v26.5v15.5q0 63 -5 100.5t-14.5 57.5t-24 26t-33.5 6z" />
    <glyph glyph-name="colon" unicode=":" horiz-adv-x="199" 
d="M158 323q0 -26 -17 -46t-42 -20q-26 0 -43 20t-17 46t17 46t43 20q25 0 42 -20t17 -46zM158 67q0 -27 -17 -47t-42 -20q-26 0 -43 20t-17 47q0 26 17 46t43 20q25 0 42 -20t17 -46z" />
    <glyph glyph-name="semicolon" unicode=";" horiz-adv-x="195" 
d="M158 323q0 -26 -17 -46t-42 -20q-26 0 -43 20t-17 46t17 46t43 20q25 0 42 -20t17 -46zM158 66q0 -20 -8.5 -44.5t-21.5 -46t-29 -36t-31 -14.5l-6 19q48 17 51 59q-13 -5 -23 -5q-23 0 -37 20t-14 49q0 27 16.5 46t43.5 19t43 -19t16 -47z" />
    <glyph glyph-name="less" unicode="&#x3c;" horiz-adv-x="462" 
d="M103 286q79 -65 165 -96l-24 -71q-80 72 -197 136l-2 42q76 54 126.5 91t76.5 60l11 -44z" />
    <glyph glyph-name="equal" unicode="=" horiz-adv-x="195" 
d="M158 313h-144v77h144v-77zM158 175h-144v76h144v-76z" />
    <glyph glyph-name="greater" unicode="&#x3e;" horiz-adv-x="462" 
d="M209 280q-80 64 -165 96l24 71q80 -72 197 -136l2 -42q-76 -54 -126.5 -91t-76.5 -60l-11 44z" />
    <glyph glyph-name="question" unicode="?" horiz-adv-x="364" 
d="M326 532q0 -41 -14.5 -71.5t-36 -54.5t-47 -43t-47 -36.5t-36 -35.5t-14.5 -40q0 -20 15.5 -36.5t34.5 -17.5v-22q-35 0 -59.5 24t-24.5 59q0 29 10.5 49t26.5 36.5t35 32.5t35 36.5t26.5 48.5t10.5 69q0 36 -6.5 59.5t-17 37.5t-23.5 19.5t-27 5.5q-58 0 -59 -27
q42 -15 42 -63q0 -26 -17 -46t-43 -20q-25 0 -42.5 19t-17.5 44q0 61 38 98t99 37q75 0 117 -37.5t42 -124.5zM213 67q0 -27 -17 -47t-43 -20q-25 0 -42 20t-17 47q0 26 17 46t42 20q26 0 43 -20t17 -46z" />
    <glyph glyph-name="at" unicode="@" horiz-adv-x="530" 
d="M363 398v-149q0 -46 36 -46q11 0 20.5 10t16.5 27t11 38.5t4 44.5q0 45 -10 85.5t-32 71t-57 48.5t-86 18q-40 0 -75 -16t-60.5 -46.5t-40 -74t-14.5 -97.5q0 -109 45.5 -172.5t120.5 -80.5l-3 -35q-56 8 -97 33t-68 63.5t-40.5 87.5t-13.5 105q0 64 20.5 114.5t54 85.5
t78 53t92.5 18q115 0 178 -62t63 -194q0 -19 -3.5 -45t-14.5 -49t-33 -39.5t-59 -16.5q-28 0 -41.5 11t-21.5 30q-11 -14 -32 -21t-38 -7q-36 0 -63.5 27t-27.5 75q0 46 24 76.5t66 30.5q34 0 56 -16l5 14h40zM283 362q-20 0 -29.5 -20.5t-9.5 -50.5q0 -29 9 -47t28 -18
q23 0 36 27v86q-12 23 -34 23z" />
    <glyph glyph-name="A" unicode="A" 
d="M450 -169h-179v42h11q33 0 33 18q0 13 -5 42t-10 67h-197l-14 -97q-1 -3 -1 -6.5v-6.5q0 -11 10.5 -14t32.5 -3v-42h-124v42h11q21 0 30 28q40 201 76 397t68 386h66q19 -140 50.5 -309.5t76.5 -371.5q7 -35 24 -102q3 -10 6 -15.5t7.5 -8.5t11 -3.5t16.5 -0.5v-42z
M294 41q-3 17 -9.5 57t-15.5 91t-18.5 108.5t-18.5 108.5t-16 90.5t-10 55.5q-2 -9 -9.5 -47t-17.5 -90.5t-21.5 -113t-21 -114t-17 -94t-9.5 -52.5h184z" />
    <glyph glyph-name="B" unicode="B" horiz-adv-x="482" 
d="M453 80q0 -57 -13.5 -103t-38.5 -79t-61 -51t-80 -18h-260v42h10q13 0 20.5 6.5t11.5 30t5 70t1 126.5q0 105 -1.5 200t-3 166.5t-3 114t-1.5 43.5q-4 9 -13.5 11t-25.5 2v42h214q77 0 118 -52.5t41 -144.5q0 -100 -54 -146q30 -9 55 -32.5t42.5 -58.5t27 -78t9.5 -91z
M168 641q-16 0 -23.5 -18.5t-10.5 -55.5t-3 -92.5t-1 -128.5h64q39 0 61 32t22 80v62q0 54 -24 87.5t-66 33.5h-19zM130 304q2 -91 2 -179.5v-179.5q0 -7 1 -19.5t4.5 -24.5t10.5 -21t19 -9h65q56 0 90 41t34 106v114q0 78 -31.5 125t-92.5 47h-102z" />
    <glyph glyph-name="C" unicode="C" horiz-adv-x="400" 
d="M385 567q0 -27 -16.5 -49t-43.5 -22q-52 0 -52 63q0 27 6.5 41.5t29.5 23.5q-24 27 -77 27q-62 0 -94 -46.5t-32 -125.5v-471q0 -66 34 -106.5t92 -40.5q88 0 111 71h31q-39 -113 -143 -113q-57 0 -98.5 19t-69 52.5t-41 79.5t-13.5 100v334q0 61 12.5 114t39 92t68 61
t100.5 22q36 0 65 -10t49 -27t31 -40t11 -49z" />
    <glyph glyph-name="D" unicode="D" horiz-adv-x="506" 
d="M280 683q40 0 72 -22t54.5 -61.5t34.5 -93.5t12 -118v-231q0 -86 -13.5 -147.5t-38.5 -102t-61 -59.5t-80 -19h-260v42h10q13 0 20.5 6.5t11.5 30t5 70t1 126.5q0 105 -1.5 200t-3 166.5t-3 114t-1.5 43.5q-4 9 -13.5 11t-25.5 2v42h280zM168 642q-25 0 -30 -29
q0 -2 -1 -19t-1.5 -43t-1.5 -58.5t-2 -65.5t-1.5 -64t-0.5 -55q0 -96 1 -191t3 -182q0 -5 1 -15.5t4 -21.5t9.5 -19t18.5 -8h65q28 0 50.5 12t39 37t25.5 64.5t9 95.5v312q0 68 -8.5 115.5t-24 77.5t-38.5 43.5t-53 13.5h-64z" />
    <glyph glyph-name="E" unicode="E" horiz-adv-x="451" 
d="M429 -171h-429v42h13q17 0 24 6.5t8 29.5q2 42 2.5 98.5t0.5 125.5v164.5t-0.5 130.5t-1 90t-0.5 43q-1 26 -3.5 42t-8 25t-13.5 12t-21 3v42h306v-96h-39q0 54 -26 54h-66q-21 0 -28 -4.5t-9 -23.5q-2 -23 -4 -89t-3 -178h65q31 0 31 54h40v-151h-40q0 55 -31 55h-66
v-85q0 -126 2 -205t6 -114q2 -19 8.5 -24t25.5 -5h192q26 0 26 55h39v-97z" />
    <glyph glyph-name="F" unicode="F" horiz-adv-x="335" 
d="M306 587h-39q0 54 -26 54h-66q-21 0 -28 -4.5t-9 -23.5q-2 -23 -4 -99t-3 -188h65q31 0 31 54h40v-151h-40q0 55 -31 55h-66v-85q0 -65 0.5 -113.5t1.5 -84.5t2.5 -60.5t3.5 -40.5q2 -18 11.5 -23.5t36.5 -5.5v-42h-186v42h14q26 0 28 38q6 132 6 373q0 121 -0.5 190.5
t-1.5 86.5q-1 27 -4 43t-8 25t-13.5 11.5t-20.5 2.5v42h306v-96z" />
    <glyph glyph-name="G" unicode="G" horiz-adv-x="463" 
d="M443 -171q-29 0 -49 3t-34.5 10.5t-24.5 21t-19 34.5q-8 -34 -40 -56.5t-81 -22.5q-45 0 -79.5 20.5t-57 55.5t-34 83t-11.5 102v324q0 61 12 114t37.5 92t64.5 61t93 22q41 0 72 -10t51.5 -27t31 -40t10.5 -49q0 -27 -16.5 -49t-43.5 -22q-52 0 -52 63q0 28 6 41.5
t30 23.5q-24 27 -77 27q-62 0 -94 -46.5t-32 -125.5v-461q0 -32 6.5 -60.5t19.5 -50t32.5 -34t46.5 -12.5q23 0 41.5 17t31.5 46.5t20 68t7 81.5q0 49 -1.5 79.5t-6.5 48t-14 24t-25 6.5v42h179v-42h-27q-1 0 -4.5 -5.5t-7.5 -29t-7.5 -72t-3.5 -135.5q0 -20 1.5 -41
t5.5 -38.5t12 -29t20 -11.5q2 0 5 0.5t6 0.5v-42z" />
    <glyph glyph-name="H" unicode="H" horiz-adv-x="480" 
d="M463 -171h-179v42h11q8 0 14 4t10 18t6.5 42t4 76t2 119.5t0.5 173.5h-185q4 -402 12 -417q7 -16 37 -16v-42h-179v42h11q11 0 18 4.5t11.5 20.5t6 47.5t1.5 85.5q0 19 -0.5 63t-1 101t-1.5 121t-1.5 122.5t-1 105.5t-0.5 70q0 20 -9.5 24.5t-32.5 4.5v42h179v-42l-11 1
q-15 0 -23 -17.5t-11 -54t-3 -92.5t-1 -132h185q0 100 -1 159t-4 89.5t-8.5 39t-15.5 8.5h-1l-18 -1v42h179v-42q-5 1 -7.5 1h-4.5q-24 0 -27 -16.5t-4 -50.5q-1 -25 -2 -59.5t-2 -71t-1.5 -72.5t-0.5 -64q0 -197 3 -301.5t7 -113.5q4 -10 12.5 -16t26.5 -6v-42z" />
    <glyph glyph-name="I" unicode="I" horiz-adv-x="212" 
d="M192 -171h-178v42h14q10 0 15.5 2t8.5 10.5t3.5 25t1.5 45.5q1 42 1.5 93.5t1 103.5t1 101t0.5 87.5v63v26.5q0 38 -1 81t-5 103q-2 20 -10 24t-31 4v42h178v-42q-5 1 -12 1q-23 0 -28 -29q-1 -4 -2.5 -38.5t-3 -81.5t-2.5 -97.5t-1 -87.5q0 -97 2 -188.5t2 -179.5
q0 -13 1.5 -25.5t6 -22t13.5 -15.5t24 -6v-42z" />
    <glyph glyph-name="J" unicode="J" horiz-adv-x="329" 
d="M300 683q-1 -15 -2 -62t-2 -111t-2.5 -137.5t-2 -142.5t-1 -126t-0.5 -87q0 -92 -40 -145.5t-109 -53.5q-60 0 -98 37.5t-38 97.5q0 26 17 45t42 19q26 0 43 -20t17 -47q0 -48 -42 -63q1 -27 59 -27q17 0 29 5.5t20 21.5t12.5 44.5t6.5 75t2.5 113t0.5 158.5
q0 12 -0.5 38.5t-1 61t-1.5 72t-1.5 70.5t-1.5 58t-2 34q-2 11 -4.5 17t-7 8.5t-11.5 3t-19 0.5v42h138z" />
    <glyph glyph-name="K" unicode="K" horiz-adv-x="540" 
d="M540 -171h-65q-89 0 -142 116q-20 58 -39 118t-42 110.5t-52.5 84.5t-69.5 39q0 -14 0.5 -45.5t1 -72t1.5 -85t1.5 -84t1.5 -69.5t2 -42q1 -18 9.5 -23.5t21.5 -5.5q6 0 10 1v-42h-179v42h9q17 0 24 5t9 23q1 6 1.5 31t1 61.5t1 81t1 90t1 88t0.5 76.5q0 78 -0.5 131.5
t-1.5 88.5t-3.5 54t-6.5 28.5t-10 11t-14 1.5h-5.5t-6.5 -1v42h179v-42q-2 1 -7 1q-15 0 -23.5 -8t-12.5 -40t-5 -95.5t-1 -174.5q54 2 75 94q10 43 18 90t22 86t36.5 64t61.5 25h66v-42h-39q-40 0 -55 -67q-9 -41 -17.5 -80.5t-20.5 -73.5t-30.5 -61t-47.5 -42
q95 -25 148 -142q15 -48 30.5 -101.5t34 -98.5t40.5 -74.5t50 -29.5h38v-42z" />
    <glyph glyph-name="L" unicode="L" horiz-adv-x="460" 
d="M446 -171h-429v42h15q10 0 15.5 2t8.5 10.5t3.5 25t1.5 45.5q0 11 0.5 39.5t1 66.5t1 80.5t1 81t0.5 67.5v41v29t-0.5 48.5t-1 58.5t-1.5 60t-1.5 52t-1.5 35q-2 20 -11 24t-31 4v42h179v-42l-12 1q-24 0 -29 -29q0 -5 -1.5 -39t-3 -81t-2.5 -97.5t-1 -87.5
q0 -197 6 -368q0 -5 1.5 -16.5t5 -23t10 -20.5t15.5 -9h196q26 0 26 55h39v-97z" />
    <glyph glyph-name="M" unicode="M" horiz-adv-x="531" 
d="M514 -171h-179v42h9q17 0 24 4.5t9 23.5q0 100 3 206.5t3 221.5v49t-1 51q-33 -175 -60 -323.5t-47 -273.5h-67q-2 13 -9.5 58t-18.5 105.5t-23.5 129.5t-24 130.5t-20.5 108.5t-12 64q-1 -28 -1.5 -59.5t-0.5 -59.5q0 -16 0.5 -49t1 -74.5t1.5 -87t1.5 -85.5t1.5 -70.5
t2 -42.5q1 -17 9 -23t22 -6q6 0 10 1v-41h-131v41h9q21 0 29 9q1 5 2 5.5t1.5 4.5t1 15t1.5 37q0 11 0.5 40t1 68t1 82.5t1 82.5t0.5 69.5v42.5q0 134 -2.5 206.5t-5.5 81.5q-4 10 -7 15.5t-7 8t-10 3t-16 0.5v42h126q0 -2 5 -38.5t13.5 -95t20 -134t24.5 -155t27 -157
t28 -141.5q14 57 28 124.5t29.5 153.5t33 194.5t38.5 248.5h125v-42q-2 1 -8 1q-14 0 -22 -10t-12.5 -44.5t-5.5 -100.5t-1 -179q0 -16 0.5 -49.5t1 -75t1 -86.5t1.5 -85t2 -70.5t2 -42.5q2 -19 9.5 -24t21.5 -5q6 0 10 1v-42z" />
    <glyph glyph-name="N" unicode="N" horiz-adv-x="463" 
d="M447 641q-3 1 -8 1q-15 0 -23.5 -7.5t-12.5 -40t-4.5 -98.5t-0.5 -184v-94q0 -93 2 -189.5t6 -199.5h-97q-44 185 -94.5 359t-108.5 342q0 -6 -0.5 -36t-0.5 -73t-0.5 -91.5t-0.5 -91v-72.5v-35q0 -93 1 -145.5t6 -78t15 -31t27 -5.5v-42h-138v42h10q13 0 20.5 6.5
t11.5 30t5 70t1 126.5q0 105 -1.5 200t-3 166.5t-3 114t-1.5 43.5q-4 9 -13.5 11t-25.5 2v42h141q92 -347 198 -650q3 160 3 294q0 286 -9 301q-4 9 -13.5 11t-25.5 2v42h138v-42z" />
    <glyph glyph-name="O" unicode="O" horiz-adv-x="489" 
d="M251 -181q-62 0 -106 18t-71.5 51t-40 79t-12.5 103v334q0 60 11 113t36.5 92t67.5 61.5t104 22.5q65 0 108 -22.5t69 -61.5t37 -91.5t11 -113.5v-334q0 -57 -13 -103t-39.5 -79t-67 -51t-94.5 -18zM244 -139q56 0 90 41t34 106v471q0 78 -32 125t-92 47q-62 0 -94 -46.5
t-32 -125.5v-471q0 -66 34 -106.5t92 -40.5z" />
    <glyph glyph-name="P" unicode="P" horiz-adv-x="416" 
d="M229 683q77 0 118 -52.5t41 -144.5q0 -43 -10.5 -79t-31.5 -61.5t-52 -39.5t-71 -14h-78q0 -103 1 -174t3.5 -118t6 -73t9 -38.5t12.5 -15t17 -2.5v-42h-179v42h10q13 0 20.5 4.5t11.5 26t5 65.5t1 122q0 109 0.5 190t0.5 140q0 81 -1.5 125.5t-7 66t-15 26t-25.5 4.5v42
h214zM183 641q-16 0 -23.5 -19.5t-10 -58t-3 -96t-1.5 -133.5h57q45 0 67.5 30.5t22.5 81.5v74q0 54 -24 87.5t-66 33.5h-19z" />
    <glyph glyph-name="Q" unicode="Q" horiz-adv-x="553" 
d="M232 693q63 0 105.5 -22.5t68 -61.5t36.5 -92t11 -113v-163q0 -151 -86 -217q3 -21 9 -48t15.5 -50t23 -39t30.5 -16h47v-42h-68q-38 0 -62 17t-39 42.5t-22.5 55.5t-11.5 55q-14 -9 -57 -9q-59 0 -101 18t-69 51t-40 79t-13 103v163q0 60 10.5 113t36.5 92t68.5 61.5
t107.5 22.5zM232 651q-62 0 -94 -46.5t-32 -125.5v-300q0 -66 34 -106.5t92 -40.5q29 0 49 10q-9 40 -17 66t-17 41.5t-19.5 22t-23.5 6.5h-42v36h56q84 0 125 -107q13 29 13 72v300q0 78 -32 125t-92 47z" />
    <glyph glyph-name="R" unicode="R" horiz-adv-x="562" 
d="M229 683q77 0 118 -52.5t41 -144.5q0 -168 -141 -181q39 -19 71 -56t52 -95q15 -44 29 -93.5t30.5 -91.5t37.5 -70t50 -28h38v-42h-65q-89 0 -142 116q-20 58 -39 118t-42 110.5t-52.5 84.5t-69.5 39q0 -14 0.5 -45.5t1 -72.5t1.5 -85.5t1.5 -84.5t1.5 -69.5t2 -40.5
q1 -18 9.5 -23.5t21.5 -5.5q6 0 10 1v-42h-179v42h9q17 0 25 5.5t8 22.5q2 85 4 191.5t2 236.5q0 78 -0.5 131.5t-1.5 88.5t-3.5 54t-6.5 28.5t-10 11t-14 1.5h-5.5t-6.5 -1v42h214zM183 641q-16 0 -23.5 -17.5t-10 -54t-3 -92t-1.5 -131.5h57q45 0 67.5 30.5t22.5 81.5v62
q0 54 -24 87.5t-66 33.5h-19z" />
    <glyph glyph-name="S" unicode="S" horiz-adv-x="344" 
d="M321 -6q0 -41 -15 -74t-40 -55.5t-56 -34.5t-63 -12q-47 0 -83 29.5t-51 84.5l31 8q10 -34 35.5 -57t59.5 -23q51 0 72 32t21 89q0 60 -26.5 122.5t-80.5 137.5t-80 149t-26 134q0 39 11.5 70.5t31 53.5t46.5 34t58 12q32 0 72 -34v42h38v-128h-38q0 35 -19 56.5
t-53 21.5q-60 0 -60 -98q0 -118 107 -276q54 -79 81 -147t27 -137z" />
    <glyph glyph-name="T" unicode="T" horiz-adv-x="412" 
d="M394 587h-40q0 31 -8 43t-35 12q-24 0 -38 -6t-20.5 -29t-8.5 -68t-2 -124v-317q0 -25 0.5 -52.5t1.5 -54t2 -50t2 -41.5q1 -17 10 -23t38 -6v-42h-192v42h8q34 0 39 29q1 5 2 27t2 51t2 61.5t1 58.5v325q0 23 -0.5 44t-1 43t-2 47t-3.5 56q-2 18 -9 23t-25 5h-38
q-26 0 -26 -54h-39v96h380v-96z" />
    <glyph glyph-name="U" unicode="U" horiz-adv-x="497" 
d="M482 641q-5 1 -7.5 1h-4.5q-23 0 -28.5 -30.5t-5.5 -99.5q0 -28 0.5 -77.5t1.5 -108.5t1.5 -121.5t0.5 -116.5q0 -134 -36 -201.5t-127 -67.5q-112 0 -162.5 61t-50.5 186q0 19 0.5 57.5t1.5 82.5t1.5 87t0.5 72v58t-0.5 55t-2 60.5t-3.5 74.5q-3 20 -10.5 24t-31.5 4v42
h186v-42q-5 1 -7.5 1h-4.5q-13 0 -20 -11.5t-10.5 -37.5t-4.5 -68t-1 -104q0 -30 0.5 -110t0.5 -192q0 -48 2.5 -94t14.5 -82.5t35.5 -59t65.5 -22.5q43 0 67 23.5t35.5 65t14 97t2.5 118.5q0 3 -0.5 28.5t-1 63.5t-1.5 84t-1.5 90t-1 81.5t-0.5 58.5q0 37 -9 53.5t-37 16.5
v42h138v-42z" />
    <glyph glyph-name="V" unicode="V" horiz-adv-x="465" 
d="M456 641h-7q-13 0 -19.5 -3t-11 -14.5t-9 -34t-11.5 -60.5q-71 -368 -126 -699h-67q-21 147 -54.5 321.5t-77.5 382.5q-6 30 -10 50.5t-9 33t-13 18t-23 5.5v42h174v-42h-10q-33 0 -33 -18q0 -13 4.5 -41t9.5 -63q2 -17 9 -59.5t16.5 -98t20 -118t20 -118.5t17 -100
t11.5 -63q9 37 22.5 101.5t30.5 157.5q20 106 35.5 203.5t28.5 188.5q1 5 1 9q0 12 -11 15.5t-32 3.5v42h124v-42z" />
    <glyph glyph-name="W" unicode="W" horiz-adv-x="693" 
d="M206 641h-29q-33 0 -33 -18l1 -14q1 -14 3 -37t6 -48q3 -16 8.5 -59t12.5 -99t15.5 -119.5t16.5 -120.5t14.5 -101.5t10.5 -62.5q1 5 10 42.5t21.5 91.5t27.5 116t27.5 117t21.5 94.5t10 47.5h48q2 -17 10 -56.5t19 -91t23 -108.5t23.5 -108t20 -90t11.5 -55q2 9 7.5 42
t12.5 80.5t15.5 105.5t17.5 117t17 115t14 100t10 71t4 29q0 12 -17.5 15.5t-38.5 3.5v42h135v-42h-7q-11 0 -18 -4t-12 -16t-9 -34t-10 -58l-28 -172q-25 -154 -42 -284.5t-37 -242.5h-66q-6 42 -17 92t-25 108.5t-30 125.5t-31 143q-13 -72 -28 -137.5t-29 -124
t-26.5 -110.5t-19.5 -97h-67q-14 80 -25 160t-22.5 165t-26 177t-35.5 197q-2 10 -5.5 29t-10 37.5t-17 32t-28.5 13.5v42h196v-42z" />
    <glyph glyph-name="X" unicode="X" horiz-adv-x="482" 
d="M476 -171h-192v42h9q34 0 34 18q0 33 -108 318q-108 -285 -108 -318q0 -11 11 -14.5t33 -3.5v-42h-145v42h7q13 0 19 4t15 24q1 2 8.5 20t19 47t26.5 65.5t31 76t32 79.5l30 75q-45 114 -79 201t-63 150q-9 19 -17 23.5t-25 4.5v42h193v-42l-7 1q-36 0 -36 -19
q0 -14 24.5 -90.5t78.5 -218.5q54 142 76.5 218.5t22.5 90.5q0 18 -42 18v42h144v-42l-7 1q-14 0 -19.5 -3.5t-15.5 -25.5q-37 -81 -70 -167.5t-70 -180.5q5 -11 16.5 -40t26.5 -66.5t32 -79t32 -78.5t26.5 -65t15.5 -37q10 -22 17 -25t24 -3v-42z" />
    <glyph glyph-name="Y" unicode="Y" horiz-adv-x="495" 
d="M481 641h-7q-9 0 -15 -3t-13 -14.5t-17 -35t-27 -64.5l-73 -177q-7 -16 -16.5 -40t-23.5 -56q0 -37 -0.5 -78t-0.5 -83v-83v-77q0 -21 3 -32.5t9 -17.5t15.5 -7.5t22.5 -1.5v-42h-179v42h11q8 0 13.5 1.5t9.5 12t6 33.5t3.5 64.5t2.5 106t2 158.5q-13 37 -28 76t-33 83.5
t-40 95.5t-49 111q-8 19 -16.5 23.5t-25.5 4.5v42h193v-42l-7 1q-36 0 -36 -19q0 -24 107 -309q107 285 107 309q0 18 -42 18v42h144v-42z" />
    <glyph glyph-name="Z" unicode="Z" horiz-adv-x="335" 
d="M339 -171h-339v42l6 17q4 12 14 47.5t24.5 86.5t31.5 112.5t35 125.5t35 126t31 114t24 89.5t14 51.5h-125q-13 0 -19.5 -16t-6.5 -37h-39v95h284v-42q0 1 -6 -17q-23 -71 -50 -162t-59 -203q-34 -120 -60 -216.5t-44 -171.5h183q13 0 20 18t7 37h39v-97z" />
    <glyph glyph-name="grave" unicode="`" horiz-adv-x="215" 
d="M194 490h-44l-133 92h79z" />
    <glyph glyph-name="a" unicode="a" horiz-adv-x="405" 
d="M396 64q0 -30 -20 -51t-51 -21q-50 0 -72 45q-28 -22 -55.5 -34t-54.5 -12q-66 0 -99 30t-33 87q0 28 11.5 49.5t36.5 34.5q24 12 49.5 23t48.5 23t43.5 25.5t34.5 31.5q-1 36 -4 58.5t-9 35.5t-17 18t-28 5q-59 0 -59 -27q41 -15 41 -64q0 -26 -17 -46t-42 -20
q-26 0 -43 19t-17 45q0 33 11 58t30.5 42t46 26t56.5 9q36 0 62.5 -9t43.5 -36t25 -76.5t8 -130.5q0 -75 3.5 -116.5t16.5 -41.5q6 0 10.5 6t4.5 17v31h38v-34zM239 124q0 34 -0.5 68t-1.5 68q-15 -22 -36.5 -37t-41 -29.5t-33.5 -32.5t-14 -46t16.5 -43.5t49.5 -15.5
q26 0 43.5 21t17.5 47z" />
    <glyph glyph-name="b" unicode="b" horiz-adv-x="384" 
d="M209 455q40 0 70 -16.5t49.5 -43.5t29 -63t9.5 -75v-66q0 -39 -12 -75t-33.5 -63t-50.5 -43.5t-62 -16.5q-28 0 -53.5 18.5t-49.5 44.5q-14 -43 -24 -59l-40 14q5 35 7.5 78.5t4 88.5t2 89t0.5 80q0 24 -0.5 54.5t-1 64.5l-1 68t-0.5 66q0 33 -7 52t-38 19v42h138
q0 -7 -1.5 -86.5t-5.5 -213.5q28 42 70 42zM209 413q-15 0 -26.5 -6.5t-19.5 -17.5t-12.5 -25t-4.5 -29v-222q0 -31 17.5 -54.5t45.5 -23.5q26 0 44 24t18 54v222q0 15 -4.5 29t-12.5 25t-19.5 17.5t-25.5 6.5z" />
    <glyph glyph-name="c" unicode="c" horiz-adv-x="346" 
d="M318 106q-35 -113 -140 -113q-34 0 -63 16.5t-50.5 43.5t-33.5 63t-12 75v66q0 39 12 75t33.5 63t50.5 43.5t63 16.5q60 0 98.5 -37t38.5 -98q0 -25 -17.5 -44t-42.5 -19q-26 0 -43 20t-17 46q0 48 42 63q-2 27 -59 27q-14 0 -25.5 -6.5t-20 -17.5t-13 -25t-4.5 -29v-222
q0 -32 18.5 -55t44.5 -23q16 0 35 5.5t35.5 15t28.5 22.5t16 28h25z" />
    <glyph glyph-name="d" unicode="d" horiz-adv-x="381" 
d="M234 643q-3 29 -29 29h-4t-9 -1v42h138v-40q0 -10 -0.5 -46t-1 -86.5t-1 -108.5t-0.5 -113q0 -74 1 -140.5t5 -108.5q2 -17 8 -23t23 -6h5.5t5.5 1v-42q-27 1 -43.5 3t-27 6.5t-17.5 12.5t-15 22q-18 -22 -44 -36.5t-53 -14.5q-35 0 -63.5 16.5t-49.5 44t-32.5 63
t-11.5 74.5v66q0 39 12 74.5t33 63t49.5 44t62.5 16.5q40 0 69 -42q-1 15 -1 39t-1 54t-2.5 65t-5.5 72zM237 335q0 15 -4.5 29t-12.5 25t-19.5 17.5t-25.5 6.5t-25 -6.5t-19 -17.5t-12.5 -25t-4.5 -29v-222q0 -32 17 -55t44 -23q26 0 44 24t18 54v222z" />
    <glyph glyph-name="e" unicode="e" horiz-adv-x="359" 
d="M320 106q-35 -113 -140 -113q-36 0 -65 17t-50 45.5t-32.5 66.5t-11.5 79v56q0 39 12 75t33.5 63t50.5 43.5t63 16.5q64 0 100.5 -35.5t36.5 -99.5q0 -12 -3 -22t-11.5 -18.5t-23 -17t-36.5 -18.5l-126 -56v-75q0 -32 18.5 -55t44.5 -23q17 0 35.5 5.5t34.5 15t28 22.5
t17 28h25zM259 329q0 84 -79 84q-14 0 -25.5 -6.5t-20 -17.5t-13 -25t-4.5 -29v-97l113 46q29 12 29 45z" />
    <glyph glyph-name="f" unicode="f" horiz-adv-x="289" 
d="M185 714q19 0 39.5 -8t38 -24.5t28.5 -42t11 -59.5q0 -26 -17.5 -45t-42.5 -19q-26 0 -42.5 20t-16.5 46q0 49 41 64q0 27 -39 27q-15 0 -23.5 -9t-13.5 -33.5t-7.5 -69t-4.5 -116.5h71v-42h-72v-79q0 -60 1.5 -120.5t7.5 -134.5q1 -17 7.5 -22.5t32.5 -5.5v-42h-178v42
h14q12 0 19 10.5t11 44t5.5 95.5t1.5 165v47h-55v42h55v71q0 60 9.5 98.5t26.5 60.5t40.5 30.5t51.5 8.5z" />
    <glyph glyph-name="g" unicode="g" horiz-adv-x="396" 
d="M406 420q0 -22 -11.5 -38.5t-33.5 -16.5q-11 0 -20 5t-16 10.5t-12 10.5t-7 5q-5 0 -13 -5q20 -19 30.5 -48t10.5 -56q0 -71 -31 -120.5t-97 -58.5q39 -48 65 -141q-46 38 -111 38q-74 0 -74 -82q0 -48 32 -74.5t80 -26.5t84.5 29t45.5 75l19 -11q-10 -58 -51 -91
t-101 -33q-46 0 -84 10t-65 28.5t-42 45t-15 60.5q0 128 114 128q16 0 34 -3.5t34.5 -9t29.5 -13t19 -15.5q-3 20 -17 40.5t-43 28.5q-80 23 -111.5 72.5t-31.5 127.5q0 75 42.5 119.5t115.5 44.5q26 0 50.5 -8t42.5 -29q15 61 86 61q52 0 52 -59zM238 335q0 15 -4.5 29
t-12.5 25t-19.5 17.5t-26.5 6.5q-14 0 -25.5 -6.5t-19.5 -17.5t-12.5 -25t-4.5 -29v-109q0 -32 17.5 -55.5t44.5 -23.5t45 23.5t18 55.5v109z" />
    <glyph glyph-name="h" unicode="h" horiz-adv-x="424" 
d="M415 0h-179v42h14q11 0 17 2.5t9 13t3.5 31.5t0.5 57v193q-3 30 -19.5 53t-45.5 23q-31 0 -49.5 -23.5t-18.5 -54.5v-199q0 -54 7.5 -75t38.5 -21v-42h-179v42h15q25 0 27 29q4 85 5 166t1 165q0 51 -1 108.5t-5 132.5q-2 20 -12 24t-30 4v42h138q0 -46 -1 -117t-3 -177
q25 37 73 37q36 0 63.5 -10.5t47 -29.5t29.5 -44t10 -53v-125q0 -56 2 -86.5t7 -45t13.5 -17.5t21.5 -3v-42z" />
    <glyph glyph-name="i" unicode="i" horiz-adv-x="203" 
d="M99 687q25 0 42 -20t17 -46q0 -27 -17 -47t-42 -20q-26 0 -43 20t-17 47q0 26 17 46t43 20zM191 0h-178v42h14q12 0 19 9t10 36t4 78t1 135q0 47 -8 73t-40 30v42h138q0 -50 -1 -91.5t-2 -72.5t-2 -49t-1 -19q0 -51 1.5 -84t6 -52.5t14 -27t24.5 -7.5v-42z" />
    <glyph glyph-name="j" unicode="j" horiz-adv-x="182" 
d="M167 618q0 -26 -17 -46t-43 -20t-42.5 20t-16.5 46t16.5 46t42.5 20t43 -20t17 -46zM159 445q-5 -63 -7.5 -147t-2.5 -191v-119q0 -94 -39.5 -146t-109.5 -52q-60 0 -98 37t-38 98q0 25 17 44t42 19q26 0 43 -20t17 -46q0 -50 -42 -63q1 -27 59 -27q23 0 37 19.5t21.5 68
t10 129.5t2.5 204q0 48 -1.5 77t-6.5 45.5t-15 22t-27 5.5v42h138z" />
    <glyph glyph-name="k" unicode="k" horiz-adv-x="380" 
d="M374 0h-43q-21 0 -38.5 5t-33 18.5t-31.5 37.5t-35 62q-29 57 -53 81q1 -27 2 -56t4 -78q3 -20 11 -24t30 -4v-42h-179v42h26q7 0 11.5 14t7.5 60.5t4 135.5t1 238q0 51 -1 86t-5.5 56t-15 30t-28.5 9v42h138q0 -16 -0.5 -44t-1.5 -63t-2 -73t-2 -74t-1.5 -66.5
t-0.5 -50.5v-57.5t1 -57.5q19 19 40 43.5t39 48t29.5 42t11.5 26.5q0 16 -37 16v42h138v-42q-11 0 -24 -7.5t-31 -27.5t-43 -55.5t-62 -91.5q8 -4 18.5 -16t22 -27t23 -32t21 -31t15.5 -24t7 -11q32 -38 67 -38v-42z" />
    <glyph glyph-name="l" unicode="l" horiz-adv-x="192" 
d="M184 0h-179v42h15q9 0 15.5 9t10 44.5t5.5 107t2 196.5q0 48 -1 105.5t-5 138.5q-4 21 -10.5 24.5t-31.5 3.5v42h138q0 -27 -0.5 -61t-1 -70t-1 -73.5t-1.5 -71.5q-2 -81 -4 -166q0 -43 1.5 -89.5t6.5 -111.5q3 -18 9 -23t32 -5v-42z" />
    <glyph glyph-name="m" unicode="m" horiz-adv-x="620" 
d="M606 0h-179v42h14q11 0 17 4.5t9 21.5t3.5 50.5t0.5 91.5q0 42 -1.5 79t-7.5 64t-19 42.5t-37 15.5q-36 0 -47.5 -31t-11.5 -86v-189q0 -35 8 -49t37 -14v-42h-165v42h11q30 0 30 28q0 123 -1 190t-1 79q0 36 -11 54t-43 18q-22 0 -35.5 -13.5t-20.5 -36t-9.5 -51.5
t-2.5 -59q0 -72 0.5 -114t2.5 -63t7.5 -27t14.5 -6q4 0 9 0.5t12 0.5v-42h-178v42h13q22 0 27 22.5t5 70.5q0 93 -0.5 153t-3.5 87q-2 18 -8 23t-34 5v42q27 -1 43.5 -3t26.5 -7t17.5 -13t16.5 -21q34 51 96 51q73 0 104 -61q33 61 92 61q73 0 114.5 -32.5t41.5 -109.5v-113
q0 -24 -1.5 -47.5t-1.5 -44.5q0 -36 8.5 -49.5t37.5 -13.5v-42z" />
    <glyph glyph-name="n" unicode="n" horiz-adv-x="411" 
d="M403 0h-179v42h14q21 0 25 15.5t4 58.5q0 45 1 82t1 69q0 71 -11.5 107.5t-54.5 36.5q-21 0 -34 -7.5t-20 -22.5t-9.5 -36.5t-2.5 -49.5v-186q0 -21 0.5 -34t5 -20.5t13 -10t25.5 -2.5v-42h-179v42h14q21 0 26 21t5 63q0 63 0.5 112t0.5 78t-1.5 46t-6.5 26t-14 12t-24 3
v42q27 -1 43.5 -3t27 -6.5t17.5 -13t15 -21.5q14 25 40 38t57 13q55 0 86.5 -16.5t47.5 -44.5t20 -64t4 -75q0 -42 0.5 -70.5t0.5 -49t0.5 -35t0.5 -27.5q0 -18 7.5 -23t33.5 -5v-42z" />
    <glyph glyph-name="o" unicode="o" horiz-adv-x="350" 
d="M176 455q33 0 62 -16.5t50.5 -44t34 -63t12.5 -74.5v-66q0 -39 -12.5 -74.5t-34 -63t-50.5 -44t-62 -16.5q-34 0 -63 16.5t-50.5 43.5t-33.5 63t-12 75v66q0 39 12 75t33.5 63t50.5 43.5t63 16.5zM176 413q-14 0 -25.5 -6.5t-20 -17.5t-13 -25t-4.5 -29v-222
q0 -32 18.5 -55t44.5 -23t44 24t18 54v222q0 15 -4.5 29t-12.5 25t-19.5 17.5t-25.5 6.5z" />
    <glyph glyph-name="p" unicode="p" horiz-adv-x="385" 
d="M206 452q34 0 63 -16.5t50.5 -43.5t33.5 -63t12 -75v-65q0 -40 -12.5 -76t-34 -63.5t-50.5 -43.5t-62 -16q-40 0 -67 39q-1 -32 -1 -52v-39q0 -41 2.5 -63.5t8 -33t14 -12.5t21.5 -2v-42h-178v42q29 0 37 10t8 42q0 13 -0.5 29.5t-0.5 38.5q0 128 0.5 221t0.5 135
q0 54 -7.5 77t-37.5 23v42q28 -1 44 -3t26 -7t17 -13t16 -21q17 23 44 37t53 14zM206 411q-28 0 -45.5 -24.5t-17.5 -54.5v-195q0 -57 18.5 -81t44.5 -24t44.5 24t18.5 54v222q0 30 -17.5 54.5t-45.5 24.5z" />
    <glyph glyph-name="q" unicode="q" horiz-adv-x="379" 
d="M399 -141q0 -31 -20 -51t-51 -20q-28 0 -45 10t-26.5 37t-13 74.5t-3.5 122.5q-13 -22 -32.5 -32t-50.5 -10q-28 0 -54 12.5t-46.5 37t-32.5 62t-12 87.5v65q0 47 12 84t33.5 62.5t50.5 38.5t63 13q32 0 56 -13.5t41 -37.5q9 13 16 21.5t17.5 13t26.5 6.5t43 3v-42h-14
q-24 0 -27 -28q0 -1 -0.5 -15.5t-1.5 -38t-1.5 -52.5t-1 -59.5t-1 -59.5t-0.5 -52q0 -89 1 -140.5t3 -77.5t6.5 -33t12.5 -7q14 0 14 53h38v-34zM234 332q0 30 -17.5 54.5t-45.5 24.5t-45.5 -24.5t-17.5 -54.5v-222q0 -30 18.5 -54t44.5 -24t44.5 24t18.5 54v222z" />
    <glyph glyph-name="r" unicode="r" horiz-adv-x="325" 
d="M326 326q0 -32 -18 -51.5t-43 -19.5q-27 0 -43 20t-16 49q0 24 12.5 42.5t35.5 18.5q0 27 -39 27q-37 0 -57.5 -52t-20.5 -143q0 -49 1.5 -85.5t5.5 -61.5q3 -18 9 -23t32 -5v-42h-179v42h14q12 0 18.5 9.5t10 26t4.5 39.5t1 49q0 64 -1.5 117t-4.5 91q-1 10 -2 15.5
t-5.5 8.5t-12.5 4t-22 1v42h125v-52q16 61 84 61q55 0 83 -30t28 -98z" />
    <glyph glyph-name="s" unicode="s" horiz-adv-x="302" 
d="M148 455q24 0 46 -9t36 -35v42h38v-128h-38q0 35 -20.5 61.5t-51.5 26.5q-50 0 -50 -51q0 -15 5.5 -26.5t17.5 -21.5t31 -20.5t47 -23.5q45 -21 63.5 -56t18.5 -86q0 -30 -12 -55t-33 -43.5t-49 -29t-59 -10.5q-25 0 -48 8.5t-41.5 24.5t-30 39.5t-13.5 53.5l31 9
q5 -42 33.5 -67.5t65.5 -25.5q28 0 48 21t20 51q0 34 -13 51.5t-33.5 29.5t-46.5 24t-51 36q-20 18 -28 45.5t-8 54.5q0 23 9.5 43t26 35t39.5 23.5t50 8.5z" />
    <glyph glyph-name="t" unicode="t" horiz-adv-x="242" 
d="M290 -22q-1 -14 -9 -29t-20 -28t-26.5 -21t-28.5 -8q-31 0 -56.5 6.5t-44 26t-28.5 54t-10 91.5v212q0 59 -3 121h-50v42q22 0 42 17t34.5 43t23 58t8.5 62h35v-180h76v-42h-76q-4 -49 -7 -123t-3 -175q0 -50 3.5 -83t11 -52.5t18.5 -27.5t26 -8q16 0 33.5 14t18.5 30h32
z" />
    <glyph glyph-name="u" unicode="u" horiz-adv-x="394" 
d="M385 403h-11q-22 0 -26.5 -16.5t-4.5 -45.5v-198q0 -72 -32.5 -112.5t-104.5 -40.5q-73 0 -114.5 40.5t-41.5 112.5q0 239 -7 250q-7 10 -35 10v42h179v-42h-14q-22 0 -27 -23.5t-5 -87.5v-35q0 -62 1 -104t7.5 -68.5t20 -38t38.5 -11.5q24 0 37 10.5t19.5 33.5t8 59
t1.5 88q0 6 -0.5 29.5t-1 49.5t-1 47t-0.5 23q-1 9 -2.5 14.5t-5.5 8.5t-12 4t-22 1v42h156v-42z" />
    <glyph glyph-name="v" unicode="v" horiz-adv-x="361" 
d="M352 403h-9q-11 0 -17 -5.5t-12 -22.5q-20 -61 -44 -154t-50 -221h-66q-18 93 -43 186t-60 189q-8 20 -15 24t-20 4v42h173v-42h-11q-33 0 -33 -18l2 -10q27 -156 66 -260q33 104 60 260q1 5 1 9q0 19 -43 19v42h121v-42z" />
    <glyph glyph-name="w" unicode="w" horiz-adv-x="550" 
d="M540 403h-8q-16 -2 -25 -13.5t-15.5 -32.5t-14 -51.5t-19.5 -70.5q-18 -72 -31.5 -129.5t-21.5 -105.5h-67q-8 41 -61 225q-35 -113 -57 -225h-66q-2 12 -9.5 41t-18 67t-22 80.5t-22 80t-19 66.5t-12.5 40q-8 19 -16 23.5t-25 4.5v42h179v-42h-11q-33 0 -33 -18
q0 -2 0.5 -4l1.5 -6q26 -139 66 -260q22 66 36 131t22 129h60q11 -69 28 -133.5t39 -126.5q17 64 28 109.5t17 76t8.5 48t2.5 24.5q0 20 -8.5 25t-29.5 5v42h124v-42z" />
    <glyph glyph-name="x" unicode="x" horiz-adv-x="358" 
d="M350 0h-179v42h8q36 0 36 18q0 25 -57 136q-57 -111 -57 -136q0 -18 44 -18v-42h-138v42q18 0 29.5 4t24.5 21.5t31.5 54t50.5 102.5q-38 67 -87 150q-18 29 -49 29v42h179v-42q-44 0 -44 -18q0 -12 54 -124q54 112 54 124q0 18 -43 18v42h137v-42q-23 0 -34.5 -6
t-24.5 -28q-11 -18 -27.5 -51.5t-45.5 -87.5q11 -30 27 -63t34.5 -61t38 -46t38.5 -18v-42z" />
    <glyph glyph-name="y" unicode="y" horiz-adv-x="371" 
d="M358 403h-8q-23 0 -32 -28q-3 -10 -9.5 -37t-16 -63.5t-19.5 -78.5t-20 -82t-18 -73.5t-13 -52.5q-12 -49 -25 -86t-29 -62t-37.5 -37.5t-50.5 -12.5q-60 0 -95 37t-35 98q0 25 17 44t43 19q25 0 42 -20t17 -46q0 -49 -41 -63q0 -27 52 -27q17 0 29.5 8t22.5 27t19 49.5
t19 75.5q-4 11 -12.5 41t-20.5 69t-25 83t-25 83t-21 68t-12 39q-4 10 -7 15.5t-7 8.5t-10.5 3.5t-16.5 0.5v42h179v-42h-10q-35 0 -35 -21q0 -10 4 -34.5t12.5 -59.5t21.5 -79.5t31 -93.5q13 42 24.5 83t19.5 76.5t12.5 62t4.5 40.5q0 15 -9 20.5t-34 5.5v42h124v-42z" />
    <glyph glyph-name="z" unicode="z" horiz-adv-x="377" 
d="M321 0h-308v42q46 73 91 162.5t90 198.5h-116q-28 0 -26 -54h-39v96h303v-42q-116 -203 -187 -361h127q27 0 26 55h39v-97z" />
    <glyph glyph-name="exclamdown" unicode="&#xa1;" horiz-adv-x="204" 
d="M152 -232q0 -29 -17 -47t-45 -18q-29 0 -48 18.5t-19 47.5v7.5t1 8.5t7 34.5t17 86.5q7 36 12 66t8 54q4 33 6 74t2 91h27q0 -26 0.5 -48t1.5 -42q2 -32 6.5 -71.5t12.5 -86.5q7 -39 13.5 -78t13.5 -79q1 -5 1 -9.5v-8.5zM150 322q0 -26 -17 -46t-42 -20q-26 0 -43 20
t-17 46t17 46t43 20q25 0 42 -20t17 -46z" />
    <glyph glyph-name="section" unicode="&#xa7;" horiz-adv-x="233" 
 />
    <glyph glyph-name="dieresis" unicode="&#xa8;" horiz-adv-x="440" 
d="M395 539q0 -16 -12 -26.5t-29 -10.5t-29 10.5t-12 26.5t12.5 27t28.5 11t28.5 -11t12.5 -27zM251 539q0 -16 -12.5 -26.5t-28.5 -10.5q-17 0 -29.5 10.5t-12.5 26.5t12.5 27t28.5 11q17 0 29.5 -11t12.5 -27z" />
    <glyph glyph-name="acute" unicode="&#xb4;" horiz-adv-x="429" 
d="M320 582l-133 -92h-43l98 92h78z" />
    <glyph glyph-name="cedilla" unicode="&#xb8;" horiz-adv-x="221" 
d="M273 -99q0 -60 -106 -60v16q59 20 59 44q0 18 -40 18q-11 0 -25 -1.5t-30 -5.5l68 110h48l-45 -71q10 2 15 2q22 0 39 -15t17 -37z" />
    <glyph glyph-name="questiondown" unicode="&#xbf;" horiz-adv-x="364" 
d="M81 -93q0 130 112 182q15 7 47 19q36 15 36 43q0 20 -15 36.5t-35 16.5v22q35 0 59.5 -24t24.5 -59q0 -54 -70 -85q-33 -16 -49 -60q-13 -35 -13 -78v-65q0 -32 14 -62q16 -34 48 -34q59 0 59 27q-41 15 -41 64q0 26 17 46t42 20t42.5 -19t17.5 -45q0 -60 -38 -97.5
t-99 -37.5q-79 0 -121 58q-38 50 -38 132zM194 335q0 26 17 46t43 20t42.5 -20t16.5 -46t-16.5 -46.5t-42.5 -20.5t-43 20.5t-17 46.5z" />
    <glyph glyph-name="Agrave" unicode="&#xc0;" 
d="M450 -169h-179v42h11q33 0 33 18q0 13 -5 42t-10 67h-197l-14 -97q-1 -3 -1 -6.5v-6.5q0 -11 10.5 -14t32.5 -3v-42h-124v42h11q21 0 30 28q40 201 76 397t68 386h66q19 -140 50.5 -309.5t76.5 -371.5q7 -35 24 -102q3 -10 6 -15.5t7.5 -8.5t11 -3.5t16.5 -0.5v-42z
M294 41q-3 17 -9.5 57t-15.5 91t-18.5 108.5t-18.5 108.5t-16 90.5t-10 55.5q-2 -9 -9.5 -47t-17.5 -90.5t-21.5 -113t-21 -114t-17 -94t-9.5 -52.5h184zM324 728h-44l-133 92h79z" />
    <glyph glyph-name="Aacute" unicode="&#xc1;" 
d="M450 -169h-179v42h11q33 0 33 18q0 13 -5 42t-10 67h-197l-14 -97q-1 -3 -1 -6.5v-6.5q0 -11 10.5 -14t32.5 -3v-42h-124v42h11q21 0 30 28q40 201 76 397t68 386h66q19 -140 50.5 -309.5t76.5 -371.5q7 -35 24 -102q3 -10 6 -15.5t7.5 -8.5t11 -3.5t16.5 -0.5v-42z
M294 41q-3 17 -9.5 57t-15.5 91t-18.5 108.5t-18.5 108.5t-16 90.5t-10 55.5q-2 -9 -9.5 -47t-17.5 -90.5t-21.5 -113t-21 -114t-17 -94t-9.5 -52.5h184zM323 820l-133 -92h-43l98 92h78z" />
    <glyph glyph-name="Acircumflex" unicode="&#xc2;" 
d="M450 -169h-179v42h11q33 0 33 18q0 13 -5 42t-10 67h-197l-14 -97q-1 -3 -1 -6.5v-6.5q0 -11 10.5 -14t32.5 -3v-42h-124v42h11q21 0 30 28q40 201 76 397t68 386h66q19 -140 50.5 -309.5t76.5 -371.5q7 -35 24 -102q3 -10 6 -15.5t7.5 -8.5t11 -3.5t16.5 -0.5v-42z
M294 41q-3 17 -9.5 57t-15.5 91t-18.5 108.5t-18.5 108.5t-16 90.5t-10 55.5q-2 -9 -9.5 -47t-17.5 -90.5t-21.5 -113t-21 -114t-17 -94t-9.5 -52.5h184zM353 730h-44l-74 63l-72 -63h-43l82 92h68z" />
    <glyph glyph-name="Atilde" unicode="&#xc3;" 
d="M450 -169h-179v42h11q33 0 33 18q0 13 -5 42t-10 67h-197l-14 -97q-1 -3 -1 -6.5v-6.5q0 -11 10.5 -14t32.5 -3v-42h-124v42h11q21 0 30 28q40 201 76 397t68 386h66q19 -140 50.5 -309.5t76.5 -371.5q7 -35 24 -102q3 -10 6 -15.5t7.5 -8.5t11 -3.5t16.5 -0.5v-42z
M294 41q-3 17 -9.5 57t-15.5 91t-18.5 108.5t-18.5 108.5t-16 90.5t-10 55.5q-2 -9 -9.5 -47t-17.5 -90.5t-21.5 -113t-21 -114t-17 -94t-9.5 -52.5h184zM364 825q0 -44 -15 -62t-59 -18q-29 0 -68 19q-42 20 -51 20q-24 0 -35 -38h-26q1 43 14 60q16 19 60 19q28 0 67 -19
t53 -19q26 0 34 38h26z" />
    <glyph glyph-name="Adieresis" unicode="&#xc4;" 
d="M450 -169h-179v42h11q33 0 33 18q0 13 -5 42t-10 67h-197l-14 -97q-1 -3 -1 -6.5v-6.5q0 -11 10.5 -14t32.5 -3v-42h-124v42h11q21 0 30 28q40 201 76 397t68 386h66q19 -140 50.5 -309.5t76.5 -371.5q7 -35 24 -102q3 -10 6 -15.5t7.5 -8.5t11 -3.5t16.5 -0.5v-42z
M294 41q-3 17 -9.5 57t-15.5 91t-18.5 108.5t-18.5 108.5t-16 90.5t-10 55.5q-2 -9 -9.5 -47t-17.5 -90.5t-21.5 -113t-21 -114t-17 -94t-9.5 -52.5h184zM350 777q0 -16 -12 -26.5t-29 -10.5t-29 10.5t-12 26.5t12.5 27t28.5 11t28.5 -11t12.5 -27zM206 777
q0 -16 -12.5 -26.5t-28.5 -10.5q-17 0 -29.5 10.5t-12.5 26.5t12.5 27t28.5 11q17 0 29.5 -11t12.5 -27z" />
    <glyph glyph-name="Aring" unicode="&#xc5;" 
d="M450 -169h-179v42h11q33 0 33 18q0 13 -5 42t-10 67h-197l-14 -97q-1 -3 -1 -6.5v-6.5q0 -11 10.5 -14t32.5 -3v-42h-124v42h11q21 0 30 28q40 201 76 397t68 386h66q19 -140 50.5 -309.5t76.5 -371.5q7 -35 24 -102q3 -10 6 -15.5t7.5 -8.5t11 -3.5t16.5 -0.5v-42z
M294 41q-3 17 -9.5 57t-15.5 91t-18.5 108.5t-18.5 108.5t-16 90.5t-10 55.5q-2 -9 -9.5 -47t-17.5 -90.5t-21.5 -113t-21 -114t-17 -94t-9.5 -52.5h184zM328 746q0 -30 -32 -48q-28 -14 -60 -14q-33 0 -59 14q-32 18 -32 48t32 47q25 15 59 15q33 0 59 -15q33 -17 33 -47z
M267 743q0 15 -8.5 28t-22.5 13t-22 -13t-8 -28q0 -14 8 -27t22 -13t22.5 13t8.5 27z" />
    <glyph glyph-name="AE" unicode="&#xc6;" horiz-adv-x="756" 
d="M731 -171h-429v2h-24v42h10q33 0 33 18v3t-1 7q-2 17 -5.5 41.5t-8.5 57.5h-196q-2 -17 -5.5 -41.5t-8.5 -57.5q-1 -5 -1 -9q0 -20 43 -19v-42h-124v42h10q23 0 30 28q4 10 17 84q35 180 66.5 354t60.5 345h67q27 -207 84 -484v112q0 126 -1.5 200.5t-3.5 100.5
q-3 22 -13 26q-5 3 -29 2v42h306v-96h-40q0 54 -26 54h-66q-20 0 -27 -4.5t-9 -23.5q-2 -23 -4 -89t-4 -178h66q31 0 31 54h39v-151h-39q0 55 -31 55h-66v-85q0 -125 2 -204.5t6 -114.5q2 -13 4 -19t10 -8h2q3 -1 7.5 -1t10.5 -1h191q26 0 26 55h40v-97zM300 41
q-11 72 -23 148t-26 157q-6 35 -15.5 86t-23.5 120q-17 -68 -45 -222q-15 -79 -27.5 -151t-23.5 -138h184z" />
    <glyph glyph-name="Ccedilla" unicode="&#xc7;" horiz-adv-x="400" 
d="M385 567q0 -27 -16.5 -49t-43.5 -22q-52 0 -52 63q0 27 6.5 41.5t29.5 23.5q-24 27 -77 27q-62 0 -94 -46.5t-32 -125.5v-471q0 -66 34 -106.5t92 -40.5q88 0 111 71h31q-39 -113 -143 -113q-57 0 -98.5 19t-69 52.5t-41 79.5t-13.5 100v334q0 61 12.5 114t39 92t68 61
t100.5 22q36 0 65 -10t49 -27t31 -40t11 -49zM285 -272q0 -60 -106 -60v16q59 20 59 44q0 18 -40 18q-11 0 -25 -1.5t-30 -5.5l68 110h48l-45 -71q10 2 15 2q22 0 39 -15t17 -37z" />
    <glyph glyph-name="Egrave" unicode="&#xc8;" horiz-adv-x="451" 
d="M429 -171h-429v42h13q17 0 24 6.5t8 29.5q2 42 2.5 98.5t0.5 125.5v164.5t-0.5 130.5t-1 90t-0.5 43q-1 26 -3.5 42t-8 25t-13.5 12t-21 3v42h306v-96h-39q0 54 -26 54h-66q-21 0 -28 -4.5t-9 -23.5q-2 -23 -4 -89t-3 -178h65q31 0 31 54h40v-151h-40q0 55 -31 55h-66
v-85q0 -126 2 -205t6 -114q2 -19 8.5 -24t25.5 -5h192q26 0 26 55h39v-97zM237 728h-44l-133 92h79z" />
    <glyph glyph-name="Eacute" unicode="&#xc9;" horiz-adv-x="451" 
d="M429 -171h-429v42h13q17 0 24 6.5t8 29.5q2 42 2.5 98.5t0.5 125.5v164.5t-0.5 130.5t-1 90t-0.5 43q-1 26 -3.5 42t-8 25t-13.5 12t-21 3v42h306v-96h-39q0 54 -26 54h-66q-21 0 -28 -4.5t-9 -23.5q-2 -23 -4 -89t-3 -178h65q31 0 31 54h40v-151h-40q0 55 -31 55h-66
v-85q0 -126 2 -205t6 -114q2 -19 8.5 -24t25.5 -5h192q26 0 26 55h39v-97zM315 820l-133 -92h-43l98 92h78z" />
    <glyph glyph-name="Ecircumflex" unicode="&#xca;" horiz-adv-x="451" 
d="M429 -171h-429v42h13q17 0 24 6.5t8 29.5q2 42 2.5 98.5t0.5 125.5v164.5t-0.5 130.5t-1 90t-0.5 43q-1 26 -3.5 42t-8 25t-13.5 12t-21 3v42h306v-96h-39q0 54 -26 54h-66q-21 0 -28 -4.5t-9 -23.5q-2 -23 -4 -89t-3 -178h65q31 0 31 54h40v-151h-40q0 55 -31 55h-66
v-85q0 -126 2 -205t6 -114q2 -19 8.5 -24t25.5 -5h192q26 0 26 55h39v-97zM296 730h-44l-74 63l-72 -63h-43l82 92h68z" />
    <glyph glyph-name="Edieresis" unicode="&#xcb;" horiz-adv-x="451" 
d="M429 -171h-429v42h13q17 0 24 6.5t8 29.5q2 42 2.5 98.5t0.5 125.5v164.5t-0.5 130.5t-1 90t-0.5 43q-1 26 -3.5 42t-8 25t-13.5 12t-21 3v42h306v-96h-39q0 54 -26 54h-66q-21 0 -28 -4.5t-9 -23.5q-2 -23 -4 -89t-3 -178h65q31 0 31 54h40v-151h-40q0 55 -31 55h-66
v-85q0 -126 2 -205t6 -114q2 -19 8.5 -24t25.5 -5h192q26 0 26 55h39v-97zM291 777q0 -16 -12 -26.5t-29 -10.5t-29 10.5t-12 26.5t12.5 27t28.5 11t28.5 -11t12.5 -27zM147 777q0 -16 -12.5 -26.5t-28.5 -10.5q-17 0 -29.5 10.5t-12.5 26.5t12.5 27t28.5 11q17 0 29.5 -11
t12.5 -27z" />
    <glyph glyph-name="Igrave" unicode="&#xcc;" horiz-adv-x="212" 
d="M192 -171h-178v42h14q10 0 15.5 2t8.5 10.5t3.5 25t1.5 45.5q1 42 1.5 93.5t1 103.5t1 101t0.5 87.5v63v26.5q0 38 -1 81t-5 103q-2 20 -10 24t-31 4v42h178v-42q-5 1 -12 1q-23 0 -28 -29q-1 -4 -2.5 -38.5t-3 -81.5t-2.5 -97.5t-1 -87.5q0 -97 2 -188.5t2 -179.5
q0 -13 1.5 -25.5t6 -22t13.5 -15.5t24 -6v-42zM163 728h-44l-133 92h79z" />
    <glyph glyph-name="Iacute" unicode="&#xcd;" horiz-adv-x="212" 
d="M192 -171h-178v42h14q10 0 15.5 2t8.5 10.5t3.5 25t1.5 45.5q1 42 1.5 93.5t1 103.5t1 101t0.5 87.5v63v26.5q0 38 -1 81t-5 103q-2 20 -10 24t-31 4v42h178v-42q-5 1 -12 1q-23 0 -28 -29q-1 -4 -2.5 -38.5t-3 -81.5t-2.5 -97.5t-1 -87.5q0 -97 2 -188.5t2 -179.5
q0 -13 1.5 -25.5t6 -22t13.5 -15.5t24 -6v-42zM235 820l-133 -92h-43l98 92h78z" />
    <glyph glyph-name="Icircumflex" unicode="&#xce;" horiz-adv-x="212" 
d="M192 -171h-178v42h14q10 0 15.5 2t8.5 10.5t3.5 25t1.5 45.5q1 42 1.5 93.5t1 103.5t1 101t0.5 87.5v63v26.5q0 38 -1 81t-5 103q-2 20 -10 24t-31 4v42h178v-42q-5 1 -12 1q-23 0 -28 -29q-1 -4 -2.5 -38.5t-3 -81.5t-2.5 -97.5t-1 -87.5q0 -97 2 -188.5t2 -179.5
q0 -13 1.5 -25.5t6 -22t13.5 -15.5t24 -6v-42zM224 730h-44l-74 63l-72 -63h-43l82 92h68z" />
    <glyph glyph-name="Idieresis" unicode="&#xcf;" horiz-adv-x="212" 
d="M192 -171h-178v42h14q10 0 15.5 2t8.5 10.5t3.5 25t1.5 45.5q1 42 1.5 93.5t1 103.5t1 101t0.5 87.5v63v26.5q0 38 -1 81t-5 103q-2 20 -10 24t-31 4v42h178v-42q-5 1 -12 1q-23 0 -28 -29q-1 -4 -2.5 -38.5t-3 -81.5t-2.5 -97.5t-1 -87.5q0 -97 2 -188.5t2 -179.5
q0 -13 1.5 -25.5t6 -22t13.5 -15.5t24 -6v-42zM221 777q0 -16 -12 -26.5t-29 -10.5t-29 10.5t-12 26.5t12.5 27t28.5 11t28.5 -11t12.5 -27zM77 777q0 -16 -12.5 -26.5t-28.5 -10.5q-17 0 -29.5 10.5t-12.5 26.5t12.5 27t28.5 11q17 0 29.5 -11t12.5 -27z" />
    <glyph glyph-name="Ntilde" unicode="&#xd1;" horiz-adv-x="463" 
d="M447 641q-3 1 -8 1q-15 0 -23.5 -7.5t-12.5 -40t-4.5 -98.5t-0.5 -184v-94q0 -93 2 -189.5t6 -199.5h-97q-44 185 -94.5 359t-108.5 342q0 -6 -0.5 -36t-0.5 -73t-0.5 -91.5t-0.5 -91v-72.5v-35q0 -93 1 -145.5t6 -78t15 -31t27 -5.5v-42h-138v42h10q13 0 20.5 6.5
t11.5 30t5 70t1 126.5q0 105 -1.5 200t-3 166.5t-3 114t-1.5 43.5q-4 9 -13.5 11t-25.5 2v42h141q92 -347 198 -650q3 160 3 294q0 286 -9 301q-4 9 -13.5 11t-25.5 2v42h138v-42zM360 825q0 -44 -15 -62t-59 -18q-29 0 -68 19q-42 20 -51 20q-24 0 -35 -38h-26q1 43 14 60
q16 19 60 19q28 0 67 -19t53 -19q26 0 34 38h26z" />
    <glyph glyph-name="Ograve" unicode="&#xd2;" horiz-adv-x="489" 
d="M251 -181q-62 0 -106 18t-71.5 51t-40 79t-12.5 103v334q0 60 11 113t36.5 92t67.5 61.5t104 22.5q65 0 108 -22.5t69 -61.5t37 -91.5t11 -113.5v-334q0 -57 -13 -103t-39.5 -79t-67 -51t-94.5 -18zM244 -139q56 0 90 41t34 106v471q0 78 -32 125t-92 47q-62 0 -94 -46.5
t-32 -125.5v-471q0 -66 34 -106.5t92 -40.5zM333 728h-44l-133 92h79z" />
    <glyph glyph-name="Oacute" unicode="&#xd3;" horiz-adv-x="489" 
d="M251 -181q-62 0 -106 18t-71.5 51t-40 79t-12.5 103v334q0 60 11 113t36.5 92t67.5 61.5t104 22.5q65 0 108 -22.5t69 -61.5t37 -91.5t11 -113.5v-334q0 -57 -13 -103t-39.5 -79t-67 -51t-94.5 -18zM244 -139q56 0 90 41t34 106v471q0 78 -32 125t-92 47q-62 0 -94 -46.5
t-32 -125.5v-471q0 -66 34 -106.5t92 -40.5zM332 820l-133 -92h-43l98 92h78z" />
    <glyph glyph-name="Ocircumflex" unicode="&#xd4;" horiz-adv-x="489" 
d="M251 -181q-62 0 -106 18t-71.5 51t-40 79t-12.5 103v334q0 60 11 113t36.5 92t67.5 61.5t104 22.5q65 0 108 -22.5t69 -61.5t37 -91.5t11 -113.5v-334q0 -57 -13 -103t-39.5 -79t-67 -51t-94.5 -18zM244 -139q56 0 90 41t34 106v471q0 78 -32 125t-92 47q-62 0 -94 -46.5
t-32 -125.5v-471q0 -66 34 -106.5t92 -40.5zM362 730h-44l-74 63l-72 -63h-43l82 92h68z" />
    <glyph glyph-name="Otilde" unicode="&#xd5;" horiz-adv-x="489" 
d="M251 -181q-62 0 -106 18t-71.5 51t-40 79t-12.5 103v334q0 60 11 113t36.5 92t67.5 61.5t104 22.5q65 0 108 -22.5t69 -61.5t37 -91.5t11 -113.5v-334q0 -57 -13 -103t-39.5 -79t-67 -51t-94.5 -18zM244 -139q56 0 90 41t34 106v471q0 78 -32 125t-92 47q-62 0 -94 -46.5
t-32 -125.5v-471q0 -66 34 -106.5t92 -40.5zM373 825q0 -44 -15 -62t-59 -18q-29 0 -68 19q-42 20 -51 20q-24 0 -35 -38h-26q1 43 14 60q16 19 60 19q28 0 67 -19t53 -19q26 0 34 38h26z" />
    <glyph glyph-name="Odieresis" unicode="&#xd6;" horiz-adv-x="489" 
d="M251 -181q-62 0 -106 18t-71.5 51t-40 79t-12.5 103v334q0 60 11 113t36.5 92t67.5 61.5t104 22.5q65 0 108 -22.5t69 -61.5t37 -91.5t11 -113.5v-334q0 -57 -13 -103t-39.5 -79t-67 -51t-94.5 -18zM244 -139q56 0 90 41t34 106v471q0 78 -32 125t-92 47q-62 0 -94 -46.5
t-32 -125.5v-471q0 -66 34 -106.5t92 -40.5zM359 777q0 -16 -12 -26.5t-29 -10.5t-29 10.5t-12 26.5t12.5 27t28.5 11t28.5 -11t12.5 -27zM215 777q0 -16 -12.5 -26.5t-28.5 -10.5q-17 0 -29.5 10.5t-12.5 26.5t12.5 27t28.5 11q17 0 29.5 -11t12.5 -27z" />
    <glyph glyph-name="Oslash" unicode="&#xd8;" horiz-adv-x="495" 
d="M472 80q0 -57 -13.5 -103t-38.5 -79t-61 -51t-80 -18h-58q-45 0 -80.5 18t-60.5 51t-38.5 79t-13.5 103v314q0 61 12 114t34.5 92t54.5 61t72 22h98q40 0 72 -22t54.5 -61t34.5 -92t12 -114v-314zM251 641q-61 0 -93.5 -45.5t-32.5 -126.5v-451q0 -53 23 -91
q19 77 42 165.5t47 191.5q48 211 72 342q-26 15 -58 15zM375 469q0 62 -21 106q-54 -199 -94 -370.5t-66 -320.5q25 -13 57 -13q56 0 90 41t34 106v451z" />
    <glyph glyph-name="Ugrave" unicode="&#xd9;" horiz-adv-x="497" 
d="M482 641q-5 1 -7.5 1h-4.5q-23 0 -28.5 -30.5t-5.5 -99.5q0 -28 0.5 -77.5t1.5 -108.5t1.5 -121.5t0.5 -116.5q0 -134 -36 -201.5t-127 -67.5q-112 0 -162.5 61t-50.5 186q0 19 0.5 57.5t1.5 82.5t1.5 87t0.5 72v58t-0.5 55t-2 60.5t-3.5 74.5q-3 20 -10.5 24t-31.5 4v42
h186v-42q-5 1 -7.5 1h-4.5q-13 0 -20 -11.5t-10.5 -37.5t-4.5 -68t-1 -104q0 -30 0.5 -110t0.5 -192q0 -48 2.5 -94t14.5 -82.5t35.5 -59t65.5 -22.5q43 0 67 23.5t35.5 65t14 97t2.5 118.5q0 3 -0.5 28.5t-1 63.5t-1.5 84t-1.5 90t-1 81.5t-0.5 58.5q0 37 -9 53.5t-37 16.5
v42h138v-42zM337 728h-44l-133 92h79z" />
    <glyph glyph-name="Uacute" unicode="&#xda;" horiz-adv-x="497" 
d="M482 641q-5 1 -7.5 1h-4.5q-23 0 -28.5 -30.5t-5.5 -99.5q0 -28 0.5 -77.5t1.5 -108.5t1.5 -121.5t0.5 -116.5q0 -134 -36 -201.5t-127 -67.5q-112 0 -162.5 61t-50.5 186q0 19 0.5 57.5t1.5 82.5t1.5 87t0.5 72v58t-0.5 55t-2 60.5t-3.5 74.5q-3 20 -10.5 24t-31.5 4v42
h186v-42q-5 1 -7.5 1h-4.5q-13 0 -20 -11.5t-10.5 -37.5t-4.5 -68t-1 -104q0 -30 0.5 -110t0.5 -192q0 -48 2.5 -94t14.5 -82.5t35.5 -59t65.5 -22.5q43 0 67 23.5t35.5 65t14 97t2.5 118.5q0 3 -0.5 28.5t-1 63.5t-1.5 84t-1.5 90t-1 81.5t-0.5 58.5q0 37 -9 53.5t-37 16.5
v42h138v-42zM336 820l-133 -92h-43l98 92h78z" />
    <glyph glyph-name="Ucircumflex" unicode="&#xdb;" horiz-adv-x="497" 
d="M482 641q-5 1 -7.5 1h-4.5q-23 0 -28.5 -30.5t-5.5 -99.5q0 -28 0.5 -77.5t1.5 -108.5t1.5 -121.5t0.5 -116.5q0 -134 -36 -201.5t-127 -67.5q-112 0 -162.5 61t-50.5 186q0 19 0.5 57.5t1.5 82.5t1.5 87t0.5 72v58t-0.5 55t-2 60.5t-3.5 74.5q-3 20 -10.5 24t-31.5 4v42
h186v-42q-5 1 -7.5 1h-4.5q-13 0 -20 -11.5t-10.5 -37.5t-4.5 -68t-1 -104q0 -30 0.5 -110t0.5 -192q0 -48 2.5 -94t14.5 -82.5t35.5 -59t65.5 -22.5q43 0 67 23.5t35.5 65t14 97t2.5 118.5q0 3 -0.5 28.5t-1 63.5t-1.5 84t-1.5 90t-1 81.5t-0.5 58.5q0 37 -9 53.5t-37 16.5
v42h138v-42zM365 730h-44l-74 63l-72 -63h-43l82 92h68z" />
    <glyph glyph-name="Udieresis" unicode="&#xdc;" horiz-adv-x="497" 
d="M482 641q-5 1 -7.5 1h-4.5q-23 0 -28.5 -30.5t-5.5 -99.5q0 -28 0.5 -77.5t1.5 -108.5t1.5 -121.5t0.5 -116.5q0 -134 -36 -201.5t-127 -67.5q-112 0 -162.5 61t-50.5 186q0 19 0.5 57.5t1.5 82.5t1.5 87t0.5 72v58t-0.5 55t-2 60.5t-3.5 74.5q-3 20 -10.5 24t-31.5 4v42
h186v-42q-5 1 -7.5 1h-4.5q-13 0 -20 -11.5t-10.5 -37.5t-4.5 -68t-1 -104q0 -30 0.5 -110t0.5 -192q0 -48 2.5 -94t14.5 -82.5t35.5 -59t65.5 -22.5q43 0 67 23.5t35.5 65t14 97t2.5 118.5q0 3 -0.5 28.5t-1 63.5t-1.5 84t-1.5 90t-1 81.5t-0.5 58.5q0 37 -9 53.5t-37 16.5
v42h138v-42zM363 777q0 -16 -12 -26.5t-29 -10.5t-29 10.5t-12 26.5t12.5 27t28.5 11t28.5 -11t12.5 -27zM219 777q0 -16 -12.5 -26.5t-28.5 -10.5q-17 0 -29.5 10.5t-12.5 26.5t12.5 27t28.5 11q17 0 29.5 -11t12.5 -27z" />
    <glyph glyph-name="germandbls" unicode="&#xdf;" horiz-adv-x="382" 
d="M369 199q0 -39 -12 -75t-33.5 -63.5t-50.5 -43.5t-63 -16v42q28 0 45.5 24t17.5 54v180q0 32 -15 55.5t-41 23.5h-24v32h25q10 0 20 6t18 15.5t12.5 21t4.5 23.5v116q0 30 -17.5 54t-45.5 24q-27 0 -42.5 -13t-23 -41.5t-9.5 -74t-2 -111.5q0 -23 0.5 -58.5t1.5 -77
t1.5 -86t1.5 -84.5t1.5 -73t0.5 -52h-138v42q5 -1 8.5 -1h5.5q10 0 16 4t9.5 18t5 41t1.5 73v32v63t-0.5 81t-0.5 84.5v74v50.5q0 72 42.5 111.5t120.5 39.5q35 0 64.5 -14t50.5 -39t32.5 -58t11.5 -70v-11q0 -101 -81 -128q20 -11 35.5 -31.5t25.5 -47t15 -56.5t5 -60z" />
    <glyph glyph-name="agrave" unicode="&#xe0;" horiz-adv-x="405" 
d="M396 64q0 -30 -20 -51t-51 -21q-50 0 -72 45q-28 -22 -55.5 -34t-54.5 -12q-66 0 -99 30t-33 87q0 28 11.5 49.5t36.5 34.5q24 12 49.5 23t48.5 23t43.5 25.5t34.5 31.5q-1 36 -4 58.5t-9 35.5t-17 18t-28 5q-59 0 -59 -27q41 -15 41 -64q0 -26 -17 -46t-42 -20
q-26 0 -43 19t-17 45q0 33 11 58t30.5 42t46 26t56.5 9q36 0 62.5 -9t43.5 -36t25 -76.5t8 -130.5q0 -75 3.5 -116.5t16.5 -41.5q6 0 10.5 6t4.5 17v31h38v-34zM239 124q0 34 -0.5 68t-1.5 68q-15 -22 -36.5 -37t-41 -29.5t-33.5 -32.5t-14 -46t16.5 -43.5t49.5 -15.5
q26 0 43.5 21t17.5 47zM291 490h-44l-133 92h79z" />
    <glyph glyph-name="aacute" unicode="&#xe1;" horiz-adv-x="405" 
d="M396 64q0 -30 -20 -51t-51 -21q-50 0 -72 45q-28 -22 -55.5 -34t-54.5 -12q-66 0 -99 30t-33 87q0 28 11.5 49.5t36.5 34.5q24 12 49.5 23t48.5 23t43.5 25.5t34.5 31.5q-1 36 -4 58.5t-9 35.5t-17 18t-28 5q-59 0 -59 -27q41 -15 41 -64q0 -26 -17 -46t-42 -20
q-26 0 -43 19t-17 45q0 33 11 58t30.5 42t46 26t56.5 9q36 0 62.5 -9t43.5 -36t25 -76.5t8 -130.5q0 -75 3.5 -116.5t16.5 -41.5q6 0 10.5 6t4.5 17v31h38v-34zM239 124q0 34 -0.5 68t-1.5 68q-15 -22 -36.5 -37t-41 -29.5t-33.5 -32.5t-14 -46t16.5 -43.5t49.5 -15.5
q26 0 43.5 21t17.5 47zM292 582l-133 -92h-43l98 92h78z" />
    <glyph glyph-name="acircumflex" unicode="&#xe2;" horiz-adv-x="405" 
d="M396 64q0 -30 -20 -51t-51 -21q-50 0 -72 45q-28 -22 -55.5 -34t-54.5 -12q-66 0 -99 30t-33 87q0 28 11.5 49.5t36.5 34.5q24 12 49.5 23t48.5 23t43.5 25.5t34.5 31.5q-1 36 -4 58.5t-9 35.5t-17 18t-28 5q-59 0 -59 -27q41 -15 41 -64q0 -26 -17 -46t-42 -20
q-26 0 -43 19t-17 45q0 33 11 58t30.5 42t46 26t56.5 9q36 0 62.5 -9t43.5 -36t25 -76.5t8 -130.5q0 -75 3.5 -116.5t16.5 -41.5q6 0 10.5 6t4.5 17v31h38v-34zM239 124q0 34 -0.5 68t-1.5 68q-15 -22 -36.5 -37t-41 -29.5t-33.5 -32.5t-14 -46t16.5 -43.5t49.5 -15.5
q26 0 43.5 21t17.5 47zM320 492h-44l-74 63l-72 -63h-43l82 92h68z" />
    <glyph glyph-name="atilde" unicode="&#xe3;" horiz-adv-x="405" 
d="M396 64q0 -30 -20 -51t-51 -21q-50 0 -72 45q-28 -22 -55.5 -34t-54.5 -12q-66 0 -99 30t-33 87q0 28 11.5 49.5t36.5 34.5q24 12 49.5 23t48.5 23t43.5 25.5t34.5 31.5q-1 36 -4 58.5t-9 35.5t-17 18t-28 5q-59 0 -59 -27q41 -15 41 -64q0 -26 -17 -46t-42 -20
q-26 0 -43 19t-17 45q0 33 11 58t30.5 42t46 26t56.5 9q36 0 62.5 -9t43.5 -36t25 -76.5t8 -130.5q0 -75 3.5 -116.5t16.5 -41.5q6 0 10.5 6t4.5 17v31h38v-34zM239 124q0 34 -0.5 68t-1.5 68q-15 -22 -36.5 -37t-41 -29.5t-33.5 -32.5t-14 -46t16.5 -43.5t49.5 -15.5
q26 0 43.5 21t17.5 47zM331 587q0 -44 -15 -62t-59 -18q-29 0 -68 19q-42 20 -51 20q-24 0 -35 -38h-26q1 43 14 60q16 19 60 19q28 0 67 -19t53 -19q26 0 34 38h26z" />
    <glyph glyph-name="adieresis" unicode="&#xe4;" horiz-adv-x="405" 
d="M396 64q0 -30 -20 -51t-51 -21q-50 0 -72 45q-28 -22 -55.5 -34t-54.5 -12q-66 0 -99 30t-33 87q0 28 11.5 49.5t36.5 34.5q24 12 49.5 23t48.5 23t43.5 25.5t34.5 31.5q-1 36 -4 58.5t-9 35.5t-17 18t-28 5q-59 0 -59 -27q41 -15 41 -64q0 -26 -17 -46t-42 -20
q-26 0 -43 19t-17 45q0 33 11 58t30.5 42t46 26t56.5 9q36 0 62.5 -9t43.5 -36t25 -76.5t8 -130.5q0 -75 3.5 -116.5t16.5 -41.5q6 0 10.5 6t4.5 17v31h38v-34zM239 124q0 34 -0.5 68t-1.5 68q-15 -22 -36.5 -37t-41 -29.5t-33.5 -32.5t-14 -46t16.5 -43.5t49.5 -15.5
q26 0 43.5 21t17.5 47zM317 539q0 -16 -12 -26.5t-29 -10.5t-29 10.5t-12 26.5t12.5 27t28.5 11t28.5 -11t12.5 -27zM173 539q0 -16 -12.5 -26.5t-28.5 -10.5q-17 0 -29.5 10.5t-12.5 26.5t12.5 27t28.5 11q17 0 29.5 -11t12.5 -27z" />
    <glyph glyph-name="aring" unicode="&#xe5;" horiz-adv-x="405" 
d="M396 64q0 -30 -20 -51t-51 -21q-50 0 -72 45q-28 -22 -55.5 -34t-54.5 -12q-66 0 -99 30t-33 87q0 28 11.5 49.5t36.5 34.5q24 12 49.5 23t48.5 23t43.5 25.5t34.5 31.5q-1 36 -4 58.5t-9 35.5t-17 18t-28 5q-59 0 -59 -27q41 -15 41 -64q0 -26 -17 -46t-42 -20
q-26 0 -43 19t-17 45q0 33 11 58t30.5 42t46 26t56.5 9q36 0 62.5 -9t43.5 -36t25 -76.5t8 -130.5q0 -75 3.5 -116.5t16.5 -41.5q6 0 10.5 6t4.5 17v31h38v-34zM239 124q0 34 -0.5 68t-1.5 68q-15 -22 -36.5 -37t-41 -29.5t-33.5 -32.5t-14 -46t16.5 -43.5t49.5 -15.5
q26 0 43.5 21t17.5 47zM295 508q0 -30 -32 -48q-28 -14 -60 -14q-33 0 -59 14q-32 18 -32 48t32 47q25 15 59 15q33 0 59 -15q33 -17 33 -47zM234 505q0 15 -8.5 28t-22.5 13t-22 -13t-8 -28q0 -14 8 -27t22 -13t22.5 13t8.5 27z" />
    <glyph glyph-name="ae" unicode="&#xe6;" horiz-adv-x="578" 
d="M548 116q-35 -113 -140 -113q-85 0 -110 61q-92 -69 -145 -69q-131 0 -131 113q0 30 12.5 49t33 32t45.5 23t50 21q50 23 83 62q-2 36 -6 59t-11.5 36t-19.5 17.5t-30 4.5q-58 0 -59 -27q42 -15 42 -64q0 -26 -17 -46t-43 -20q-25 0 -42 19t-17 45q0 60 38 97.5t98 37.5
q79 0 120 -59l2 -2q43 52 107 52t100.5 -35.5t36.5 -99.5q0 -13 -3 -22.5t-11.5 -18t-22.5 -17t-36 -18.5l-126 -56v-55q0 -30 24 -50t66 -20q16 0 31 6t26.5 15t19 20t10.5 22h25zM487 319q0 84 -79 84q-14 0 -25.5 -6.5t-19.5 -17.5t-12.5 -25t-4.5 -29v-97l112 46
q14 6 21.5 18t7.5 27zM250 124q0 42 -0.5 66.5t-1 38.5t-0.5 20v11q-15 -22 -36.5 -37t-41 -29.5t-33.5 -32.5t-14 -46q0 -55 66 -55q25 0 43 19t18 45z" />
    <glyph glyph-name="ccedilla" unicode="&#xe7;" horiz-adv-x="346" 
d="M318 106q-35 -113 -140 -113q-34 0 -63 16.5t-50.5 43.5t-33.5 63t-12 75v66q0 39 12 75t33.5 63t50.5 43.5t63 16.5q60 0 98.5 -37t38.5 -98q0 -25 -17.5 -44t-42.5 -19q-26 0 -43 20t-17 46q0 48 42 63q-2 27 -59 27q-14 0 -25.5 -6.5t-20 -17.5t-13 -25t-4.5 -29v-222
q0 -32 18.5 -55t44.5 -23q16 0 35 5.5t35.5 15t28.5 22.5t16 28h25zM245 -99q0 -60 -106 -60v16q59 20 59 44q0 18 -40 18q-11 0 -25 -1.5t-30 -5.5l68 110h48l-45 -71q10 2 15 2q22 0 39 -15t17 -37z" />
    <glyph glyph-name="egrave" unicode="&#xe8;" horiz-adv-x="359" 
d="M320 106q-35 -113 -140 -113q-36 0 -65 17t-50 45.5t-32.5 66.5t-11.5 79v56q0 39 12 75t33.5 63t50.5 43.5t63 16.5q64 0 100.5 -35.5t36.5 -99.5q0 -12 -3 -22t-11.5 -18.5t-23 -17t-36.5 -18.5l-126 -56v-75q0 -32 18.5 -55t44.5 -23q17 0 35.5 5.5t34.5 15t28 22.5
t17 28h25zM259 329q0 84 -79 84q-14 0 -25.5 -6.5t-20 -17.5t-13 -25t-4.5 -29v-97l113 46q29 12 29 45zM268 490h-44l-133 92h79z" />
    <glyph glyph-name="eacute" unicode="&#xe9;" horiz-adv-x="359" 
d="M320 106q-35 -113 -140 -113q-36 0 -65 17t-50 45.5t-32.5 66.5t-11.5 79v56q0 39 12 75t33.5 63t50.5 43.5t63 16.5q64 0 100.5 -35.5t36.5 -99.5q0 -12 -3 -22t-11.5 -18.5t-23 -17t-36.5 -18.5l-126 -56v-75q0 -32 18.5 -55t44.5 -23q17 0 35.5 5.5t34.5 15t28 22.5
t17 28h25zM259 329q0 84 -79 84q-14 0 -25.5 -6.5t-20 -17.5t-13 -25t-4.5 -29v-97l113 46q29 12 29 45zM269 582l-133 -92h-43l98 92h78z" />
    <glyph glyph-name="ecircumflex" unicode="&#xea;" horiz-adv-x="359" 
d="M320 106q-35 -113 -140 -113q-36 0 -65 17t-50 45.5t-32.5 66.5t-11.5 79v56q0 39 12 75t33.5 63t50.5 43.5t63 16.5q64 0 100.5 -35.5t36.5 -99.5q0 -12 -3 -22t-11.5 -18.5t-23 -17t-36.5 -18.5l-126 -56v-75q0 -32 18.5 -55t44.5 -23q17 0 35.5 5.5t34.5 15t28 22.5
t17 28h25zM259 329q0 84 -79 84q-14 0 -25.5 -6.5t-20 -17.5t-13 -25t-4.5 -29v-97l113 46q29 12 29 45zM297 492h-44l-74 63l-72 -63h-43l82 92h68z" />
    <glyph glyph-name="edieresis" unicode="&#xeb;" horiz-adv-x="359" 
d="M320 106q-35 -113 -140 -113q-36 0 -65 17t-50 45.5t-32.5 66.5t-11.5 79v56q0 39 12 75t33.5 63t50.5 43.5t63 16.5q64 0 100.5 -35.5t36.5 -99.5q0 -12 -3 -22t-11.5 -18.5t-23 -17t-36.5 -18.5l-126 -56v-75q0 -32 18.5 -55t44.5 -23q17 0 35.5 5.5t34.5 15t28 22.5
t17 28h25zM259 329q0 84 -79 84q-14 0 -25.5 -6.5t-20 -17.5t-13 -25t-4.5 -29v-97l113 46q29 12 29 45zM294 539q0 -16 -12 -26.5t-29 -10.5t-29 10.5t-12 26.5t12.5 27t28.5 11t28.5 -11t12.5 -27zM150 539q0 -16 -12.5 -26.5t-28.5 -10.5q-17 0 -29.5 10.5t-12.5 26.5
t12.5 27t28.5 11q17 0 29.5 -11t12.5 -27z" />
    <glyph glyph-name="igrave" unicode="&#xec;" horiz-adv-x="204" 
d="M191 0h-178v42h14q25 0 28 28q0 10 0.5 25.5t1.5 35.5q3 70 3 92q0 45 -1.5 82t-3.5 69q-1 20 -13 27q-8 2 -29 2v42h138q0 -34 -0.5 -64t-1.5 -56q-2 -52 -3 -79.5t-1 -32.5q0 -97 6 -143q2 -21 12 -25q6 -3 28 -3v-42zM160 490h-44l-133 92h79z" />
    <glyph glyph-name="iacute" unicode="&#xed;" horiz-adv-x="204" 
d="M191 0h-178v42h14q25 0 28 28q0 10 0.5 25.5t1.5 35.5q3 70 3 92q0 45 -1.5 82t-3.5 69q-1 20 -13 27q-8 2 -29 2v42h138q0 -34 -0.5 -64t-1.5 -56q-2 -52 -3 -79.5t-1 -32.5q0 -97 6 -143q2 -21 12 -25q6 -3 28 -3v-42zM217 582l-133 -92h-43l98 92h78z" />
    <glyph glyph-name="icircumflex" unicode="&#xee;" horiz-adv-x="204" 
d="M191 0h-178v42h14q25 0 28 28q0 10 0.5 25.5t1.5 35.5q3 70 3 92q0 45 -1.5 82t-3.5 69q-1 20 -13 27q-8 2 -29 2v42h138q0 -34 -0.5 -64t-1.5 -56q-2 -52 -3 -79.5t-1 -32.5q0 -97 6 -143q2 -21 12 -25q6 -3 28 -3v-42zM220 492h-44l-74 63l-72 -63h-43l82 92h68z" />
    <glyph glyph-name="idieresis" unicode="&#xef;" horiz-adv-x="204" 
d="M191 0h-178v42h14q25 0 28 28q0 10 0.5 25.5t1.5 35.5q3 70 3 92q0 45 -1.5 82t-3.5 69q-1 20 -13 27q-8 2 -29 2v42h138q0 -34 -0.5 -64t-1.5 -56q-2 -52 -3 -79.5t-1 -32.5q0 -97 6 -143q2 -21 12 -25q6 -3 28 -3v-42zM217 539q0 -16 -12 -26.5t-29 -10.5t-29 10.5
t-12 26.5t12.5 27t28.5 11t28.5 -11t12.5 -27zM73 539q0 -16 -12.5 -26.5t-28.5 -10.5q-17 0 -29.5 10.5t-12.5 26.5t12.5 27t28.5 11q17 0 29.5 -11t12.5 -27z" />
    <glyph glyph-name="ntilde" unicode="&#xf1;" horiz-adv-x="411" 
d="M403 0h-179v42h14q21 0 25 15.5t4 58.5q0 45 1 82t1 69q0 71 -11.5 107.5t-54.5 36.5q-21 0 -34 -7.5t-20 -22.5t-9.5 -36.5t-2.5 -49.5v-186q0 -21 0.5 -34t5 -20.5t13 -10t25.5 -2.5v-42h-179v42h14q21 0 26 21t5 63q0 63 0.5 112t0.5 78t-1.5 46t-6.5 26t-14 12t-24 3
v42q27 -1 43.5 -3t27 -6.5t17.5 -13t15 -21.5q14 25 40 38t57 13q55 0 86.5 -16.5t47.5 -44.5t20 -64t4 -75q0 -42 0.5 -70.5t0.5 -49t0.5 -35t0.5 -27.5q0 -18 7.5 -23t33.5 -5v-42zM334 587q0 -44 -15 -62t-59 -18q-29 0 -68 19q-42 20 -51 20q-24 0 -35 -38h-26
q1 43 14 60q16 19 60 19q28 0 67 -19t53 -19q26 0 34 38h26z" />
    <glyph glyph-name="ograve" unicode="&#xf2;" horiz-adv-x="350" 
d="M176 455q33 0 62 -16.5t50.5 -44t34 -63t12.5 -74.5v-66q0 -39 -12.5 -74.5t-34 -63t-50.5 -44t-62 -16.5q-34 0 -63 16.5t-50.5 43.5t-33.5 63t-12 75v66q0 39 12 75t33.5 63t50.5 43.5t63 16.5zM176 413q-14 0 -25.5 -6.5t-20 -17.5t-13 -25t-4.5 -29v-222
q0 -32 18.5 -55t44.5 -23t44 24t18 54v222q0 15 -4.5 29t-12.5 25t-19.5 17.5t-25.5 6.5zM263 490h-44l-133 92h79z" />
    <glyph glyph-name="oacute" unicode="&#xf3;" horiz-adv-x="350" 
d="M176 455q33 0 62 -16.5t50.5 -44t34 -63t12.5 -74.5v-66q0 -39 -12.5 -74.5t-34 -63t-50.5 -44t-62 -16.5q-34 0 -63 16.5t-50.5 43.5t-33.5 63t-12 75v66q0 39 12 75t33.5 63t50.5 43.5t63 16.5zM176 413q-14 0 -25.5 -6.5t-20 -17.5t-13 -25t-4.5 -29v-222
q0 -32 18.5 -55t44.5 -23t44 24t18 54v222q0 15 -4.5 29t-12.5 25t-19.5 17.5t-25.5 6.5zM264 582l-133 -92h-43l98 92h78z" />
    <glyph glyph-name="ocircumflex" unicode="&#xf4;" horiz-adv-x="350" 
d="M176 455q33 0 62 -16.5t50.5 -44t34 -63t12.5 -74.5v-66q0 -39 -12.5 -74.5t-34 -63t-50.5 -44t-62 -16.5q-34 0 -63 16.5t-50.5 43.5t-33.5 63t-12 75v66q0 39 12 75t33.5 63t50.5 43.5t63 16.5zM176 413q-14 0 -25.5 -6.5t-20 -17.5t-13 -25t-4.5 -29v-222
q0 -32 18.5 -55t44.5 -23t44 24t18 54v222q0 15 -4.5 29t-12.5 25t-19.5 17.5t-25.5 6.5zM293 492h-44l-74 63l-72 -63h-43l82 92h68z" />
    <glyph glyph-name="otilde" unicode="&#xf5;" horiz-adv-x="350" 
d="M176 455q33 0 62 -16.5t50.5 -44t34 -63t12.5 -74.5v-66q0 -39 -12.5 -74.5t-34 -63t-50.5 -44t-62 -16.5q-34 0 -63 16.5t-50.5 43.5t-33.5 63t-12 75v66q0 39 12 75t33.5 63t50.5 43.5t63 16.5zM176 413q-14 0 -25.5 -6.5t-20 -17.5t-13 -25t-4.5 -29v-222
q0 -32 18.5 -55t44.5 -23t44 24t18 54v222q0 15 -4.5 29t-12.5 25t-19.5 17.5t-25.5 6.5zM303 587q0 -44 -15 -62t-59 -18q-29 0 -68 19q-42 20 -51 20q-24 0 -35 -38h-26q1 43 14 60q16 19 60 19q28 0 67 -19t53 -19q26 0 34 38h26z" />
    <glyph glyph-name="odieresis" unicode="&#xf6;" horiz-adv-x="350" 
d="M176 455q33 0 62 -16.5t50.5 -44t34 -63t12.5 -74.5v-66q0 -39 -12.5 -74.5t-34 -63t-50.5 -44t-62 -16.5q-34 0 -63 16.5t-50.5 43.5t-33.5 63t-12 75v66q0 39 12 75t33.5 63t50.5 43.5t63 16.5zM176 413q-14 0 -25.5 -6.5t-20 -17.5t-13 -25t-4.5 -29v-222
q0 -32 18.5 -55t44.5 -23t44 24t18 54v222q0 15 -4.5 29t-12.5 25t-19.5 17.5t-25.5 6.5zM290 539q0 -16 -12 -26.5t-29 -10.5t-29 10.5t-12 26.5t12.5 27t28.5 11t28.5 -11t12.5 -27zM146 539q0 -16 -12.5 -26.5t-28.5 -10.5q-17 0 -29.5 10.5t-12.5 26.5t12.5 27t28.5 11
q17 0 29.5 -11t12.5 -27z" />
    <glyph glyph-name="oslash" unicode="&#xf8;" horiz-adv-x="376" 
d="M343 201q0 -75 -42 -133q-47 -65 -117 -65q-71 0 -118 65q-41 59 -41 133v46q0 74 41 133q47 65 118 65q70 0 117 -65q42 -59 42 -133v-46zM184 403q-14 0 -25.5 -6.5t-20 -17.5t-13 -25t-4.5 -29v-202q0 -10 1 -15q13 29 26 60.5t27 66.5q17 45 30.5 81t21.5 64
q-17 23 -43 23zM246 326q-68 -149 -102 -264q17 -17 40 -17q28 0 46 26q16 22 16 52v203z" />
    <glyph glyph-name="ugrave" unicode="&#xf9;" horiz-adv-x="394" 
d="M385 403h-11q-22 0 -26.5 -16.5t-4.5 -45.5v-198q0 -72 -32.5 -112.5t-104.5 -40.5q-73 0 -114.5 40.5t-41.5 112.5q0 239 -7 250q-7 10 -35 10v42h179v-42h-14q-22 0 -27 -23.5t-5 -87.5v-35q0 -62 1 -104t7.5 -68.5t20 -38t38.5 -11.5q24 0 37 10.5t19.5 33.5t8 59
t1.5 88q0 6 -0.5 29.5t-1 49.5t-1 47t-0.5 23q-1 9 -2.5 14.5t-5.5 8.5t-12 4t-22 1v42h156v-42zM285 490h-44l-133 92h79z" />
    <glyph glyph-name="uacute" unicode="&#xfa;" horiz-adv-x="394" 
d="M385 403h-11q-22 0 -26.5 -16.5t-4.5 -45.5v-198q0 -72 -32.5 -112.5t-104.5 -40.5q-73 0 -114.5 40.5t-41.5 112.5q0 239 -7 250q-7 10 -35 10v42h179v-42h-14q-22 0 -27 -23.5t-5 -87.5v-35q0 -62 1 -104t7.5 -68.5t20 -38t38.5 -11.5q24 0 37 10.5t19.5 33.5t8 59
t1.5 88q0 6 -0.5 29.5t-1 49.5t-1 47t-0.5 23q-1 9 -2.5 14.5t-5.5 8.5t-12 4t-22 1v42h156v-42zM286 582l-133 -92h-43l98 92h78z" />
    <glyph glyph-name="ucircumflex" unicode="&#xfb;" horiz-adv-x="394" 
d="M385 403h-11q-22 0 -26.5 -16.5t-4.5 -45.5v-198q0 -72 -32.5 -112.5t-104.5 -40.5q-73 0 -114.5 40.5t-41.5 112.5q0 239 -7 250q-7 10 -35 10v42h179v-42h-14q-22 0 -27 -23.5t-5 -87.5v-35q0 -62 1 -104t7.5 -68.5t20 -38t38.5 -11.5q24 0 37 10.5t19.5 33.5t8 59
t1.5 88q0 6 -0.5 29.5t-1 49.5t-1 47t-0.5 23q-1 9 -2.5 14.5t-5.5 8.5t-12 4t-22 1v42h156v-42zM315 492h-44l-74 63l-72 -63h-43l82 92h68z" />
    <glyph glyph-name="udieresis" unicode="&#xfc;" horiz-adv-x="394" 
d="M385 403h-11q-22 0 -26.5 -16.5t-4.5 -45.5v-198q0 -72 -32.5 -112.5t-104.5 -40.5q-73 0 -114.5 40.5t-41.5 112.5q0 239 -7 250q-7 10 -35 10v42h179v-42h-14q-22 0 -27 -23.5t-5 -87.5v-35q0 -62 1 -104t7.5 -68.5t20 -38t38.5 -11.5q24 0 37 10.5t19.5 33.5t8 59
t1.5 88q0 6 -0.5 29.5t-1 49.5t-1 47t-0.5 23q-1 9 -2.5 14.5t-5.5 8.5t-12 4t-22 1v42h156v-42zM312 539q0 -16 -12 -26.5t-29 -10.5t-29 10.5t-12 26.5t12.5 27t28.5 11t28.5 -11t12.5 -27zM168 539q0 -16 -12.5 -26.5t-28.5 -10.5q-17 0 -29.5 10.5t-12.5 26.5t12.5 27
t28.5 11q17 0 29.5 -11t12.5 -27z" />
    <glyph glyph-name="ydieresis" unicode="&#xff;" horiz-adv-x="371" 
d="M358 403h-8q-23 0 -32 -28q-3 -10 -9.5 -37t-16 -63.5t-19.5 -78.5t-20 -82t-18 -73.5t-13 -52.5q-12 -49 -25 -86t-29 -62t-37.5 -37.5t-50.5 -12.5q-60 0 -95 37t-35 98q0 25 17 44t43 19q25 0 42 -20t17 -46q0 -49 -41 -63q0 -27 52 -27q17 0 29.5 8t22.5 27t19 49.5
t19 75.5q-4 11 -12.5 41t-20.5 69t-25 83t-25 83t-21 68t-12 39q-4 10 -7 15.5t-7 8.5t-10.5 3.5t-16.5 0.5v42h179v-42h-10q-35 0 -35 -21q0 -10 4 -34.5t12.5 -59.5t21.5 -79.5t31 -93.5q13 42 24.5 83t19.5 76.5t12.5 62t4.5 40.5q0 15 -9 20.5t-34 5.5v42h124v-42z
M300 539q0 -16 -12 -26.5t-29 -10.5t-29 10.5t-12 26.5t12.5 27t28.5 11t28.5 -11t12.5 -27zM156 539q0 -16 -12.5 -26.5t-28.5 -10.5q-17 0 -29.5 10.5t-12.5 26.5t12.5 27t28.5 11q17 0 29.5 -11t12.5 -27z" />
    <glyph glyph-name="dotlessi" unicode="&#x131;" horiz-adv-x="204" 
d="M191 0h-178v42h14q25 0 28 28q0 10 0.5 25.5t1.5 35.5q3 70 3 92q0 45 -1.5 82t-3.5 69q-1 20 -13 27q-8 2 -29 2v42h138q0 -34 -0.5 -64t-1.5 -56q-2 -52 -3 -79.5t-1 -32.5q0 -97 6 -143q2 -21 12 -25q6 -3 28 -3v-42z" />
    <glyph glyph-name="OE" unicode="&#x152;" horiz-adv-x="657" 
d="M751 -171h-429v9q-29 -9 -60 -9h-57q-96 0 -149 80q-44 68 -44 171v314q0 103 35 184q46 105 137 105h99q21 0 39 -6v6h306v-96h-39q0 54 -26 54h-66q-21 0 -28 -4.5t-9 -23.5q-2 -18 -3.5 -62.5t-3.5 -116.5q1 -10 1.5 -20t0.5 -20v-48h63q32 0 31 54h40v-151h-40
q1 55 -31 55h-63v-224q0 -10 -0.5 -19.5t-1.5 -18.5q2 -51 3.5 -86t3.5 -56q2 -19 8.5 -23.5t25.5 -5.5h192q26 0 26 55h39v-97zM359 469q0 69 -26 116q-33 56 -98 56q-67 0 -100 -55q-27 -45 -27 -117v-451q0 -62 32 -103q35 -44 95 -44q58 0 93 45q31 40 31 102v451z" />
    <glyph glyph-name="oe" unicode="&#x153;" horiz-adv-x="578" 
d="M537 116q-35 -113 -140 -113q-67 0 -112 57q-45 -57 -112 -57q-70 0 -117 65q-42 58 -42 133v46q0 74 42 133q47 65 117 65q66 0 112 -58q46 58 112 58q64 0 100.5 -35.5t36.5 -99.5q0 -30 -24 -49q-7 -5 -19.5 -12t-29.5 -15l-126 -56v-55q0 -30 16 -52q18 -26 46 -26
q35 0 69 19q39 22 46 52h25zM236 325q0 30 -16 52q-20 26 -47 26q-14 0 -25.5 -6.5t-19.5 -17.5t-12.5 -25t-4.5 -29v-202q0 -30 16 -52q18 -26 46 -26q27 0 47 26q16 22 16 52v202zM476 319q0 84 -79 84q-14 0 -25.5 -6.5t-19.5 -17.5t-12.5 -25t-4.5 -29v-97l112 46
q29 14 29 45z" />
    <glyph glyph-name="Ydieresis" unicode="&#x178;" horiz-adv-x="495" 
d="M481 641h-7q-9 0 -15 -3t-13 -14.5t-17 -35t-27 -64.5l-73 -177q-7 -16 -16.5 -40t-23.5 -56q0 -37 -0.5 -78t-0.5 -83v-83v-77q0 -21 3 -32.5t9 -17.5t15.5 -7.5t22.5 -1.5v-42h-179v42h11q8 0 13.5 1.5t9.5 12t6 33.5t3.5 64.5t2.5 106t2 158.5q-13 37 -28 76t-33 83.5
t-40 95.5t-49 111q-8 19 -16.5 23.5t-25.5 4.5v42h193v-42l-7 1q-36 0 -36 -19q0 -24 107 -309q107 285 107 309q0 18 -42 18v42h144v-42zM362 777q0 -16 -12 -26.5t-29 -10.5t-29 10.5t-12 26.5t12.5 27t28.5 11t28.5 -11t12.5 -27zM218 777q0 -16 -12.5 -26.5t-28.5 -10.5
q-17 0 -29.5 10.5t-12.5 26.5t12.5 27t28.5 11q17 0 29.5 -11t12.5 -27z" />
    <glyph glyph-name="circumflex" unicode="&#x2c6;" horiz-adv-x="435" 
d="M362 492h-44l-74 63l-72 -63h-43l82 92h68z" />
    <glyph glyph-name="ring" unicode="&#x2da;" horiz-adv-x="423" 
d="M377 508q0 -30 -32 -48q-28 -14 -60 -14q-33 0 -59 14q-32 18 -32 48t32 47q25 15 59 15q33 0 59 -15q33 -17 33 -47zM316 505q0 15 -8.5 28t-22.5 13t-22 -13t-8 -28q0 -14 8 -27t22 -13t22.5 13t8.5 27z" />
    <glyph glyph-name="tilde" unicode="&#x2dc;" horiz-adv-x="443" 
d="M410 587q0 -44 -15 -62t-59 -18q-29 0 -68 19q-42 20 -51 20q-24 0 -35 -38h-26q1 43 14 60q16 19 60 19q28 0 67 -19t53 -19q26 0 34 38h26z" />
    <glyph glyph-name="quoteleft" unicode="&#x2018;" horiz-adv-x="171" 
d="M25 687q0 28 16.5 47t43.5 19t43.5 -19t16.5 -46t-13 -46q-14 -23 -38 -23q-10 0 -23 5q1 -42 51 -59l-6 -19q-14 0 -30 15q-12 11 -23.5 26t-19.5 32t-13 34.5t-5 33.5z" />
    <glyph glyph-name="quoteright" unicode="&#x2019;" horiz-adv-x="188" 
d="M151 687q0 -16 -4.5 -33.5t-13 -34.5t-19.5 -32t-23 -26q-18 -15 -31 -15l-5 19q49 17 50 59q-12 -5 -22 -5q-25 0 -39 23q-12 19 -12 46t16 46t43 19q28 0 44 -19t16 -47z" />
    <glyph glyph-name="quotedblleft" unicode="&#x201c;" horiz-adv-x="265" 
d="M10 678q0 28 16.5 47t43.5 19t43.5 -19t16.5 -46t-13 -46q-14 -23 -38 -23q-10 0 -23 5q1 -42 50 -59l-5 -19q-14 0 -30 15q-12 11 -23.5 26t-19.5 32t-13 34.5t-5 33.5zM139 678q0 28 16.5 47t43.5 19t43.5 -19t16.5 -46t-13 -46q-14 -23 -38 -23q-10 0 -23 5
q1 -42 50 -59l-5 -19q-14 0 -30 15q-12 11 -23.5 26t-19.5 32t-13 34.5t-5 33.5z" />
    <glyph glyph-name="quotedblright" unicode="&#x201d;" horiz-adv-x="291" 
d="M146 687q0 -16 -5 -33.5t-13 -34.5t-19.5 -32t-23.5 -26q-17 -15 -30 -15l-5 19q49 17 50 59q-13 -5 -23 -5q-24 0 -38 23q-13 19 -13 46t16.5 46t43.5 19t43.5 -19t16.5 -47zM275 687q0 -16 -5 -33.5t-13 -34.5t-19.5 -32t-23.5 -26q-17 -15 -30 -15l-5 19q49 17 50 59
q-13 -5 -23 -5q-24 0 -38 23q-13 19 -13 46t16.5 46t43.5 19t43.5 -19t16.5 -47z" />
    <glyph glyph-name="bullet" unicode="&#x2022;" horiz-adv-x="503" 
d="M459 248l-144 20q-72 11 -143 0l-144 -20l89 115q15 16 45 57l81 201l55 -134q6 -20 27 -67z" />
    <glyph glyph-name="ellipsis" unicode="&#x2026;" horiz-adv-x="1050" 
d="M158 67q0 -27 -17 -47t-42 -20q-26 0 -43 20t-17 47q0 26 17 46t43 20q25 0 42 -20t17 -46zM583 67q0 -27 -17 -47t-42 -20q-26 0 -43 20t-17 47q0 26 17 46t43 20q25 0 42 -20t17 -46zM1008 67q0 -27 -17 -47t-42 -20q-26 0 -43 20t-17 47q0 26 17 46t43 20q25 0 42 -20
t17 -46z" />
    <glyph glyph-name="copyright" unicode="&#xa9;" horiz-adv-x="635" 
d="M-18 341q0 72 27.5 135t74.5 110t110 74.5t135 27.5t135 -27.5t110 -74.5t74.5 -110t27.5 -135t-27.5 -135t-74.5 -110t-110 -74.5t-135 -27.5t-135 27.5t-110 74.5t-74.5 110t-27.5 135zM23 339q0 -63 24 -119t65.5 -98t97.5 -66t120 -24t120 24t98 66t66 98t24 119
q0 64 -24 120.5t-66 98.5t-98 66.5t-120 24.5t-120 -24.5t-97.5 -66.5t-65.5 -98.5t-24 -120.5zM471 221q-35 -113 -140 -113q-34 0 -63 16.5t-50.5 43.5t-33.5 63t-12 75v66q0 39 12 75t33.5 63t50.5 43.5t63 16.5q60 0 98.5 -37t38.5 -98q0 -25 -17.5 -44t-42.5 -19
q-26 0 -43 20t-17 46q0 48 42 63q-2 27 -59 27q-14 0 -25.5 -6.5t-20 -17.5t-13 -25t-4.5 -29v-222q0 -32 18.5 -55t44.5 -23q16 0 35 5.5t35.5 15t28.5 22.5t16 28h25z" />
    <glyph glyph-name="registered" unicode="&#xae;" horiz-adv-x="540" 
d="M270 674q-42 0 -75.5 -15t-57 -39t-36 -55t-12.5 -62q0 -32 12.5 -63t36 -55t57 -39t75.5 -15q39 0 74.5 13t61.5 36.5t41.5 55t15.5 67.5q0 31 -14.5 62t-40 55t-61 39t-77.5 15zM271 292q-49 0 -90 17.5t-71 46.5t-46.5 67t-16.5 80q0 43 16.5 81.5t46.5 67.5t71 46
t90 17t91 -16.5t72.5 -45t47.5 -67t17 -83.5q0 -42 -17.5 -80t-48 -67t-72.5 -46.5t-90 -17.5zM246 568v-52h38q24 0 24 25q0 27 -24 27h-38zM270 469h-24v-84h-45v229h82q32 0 51.5 -19t19.5 -54q0 -23 -9 -37.5t-29 -27.5l41 -91h-48z" />
    <glyph glyph-name="guilsinglleft" unicode="&#x2039;" horiz-adv-x="230" 
d="M95 302l102 -48v-60l-156 77v59l156 81v-62z" />
    <glyph glyph-name="trademark" unicode="&#x2122;" horiz-adv-x="561" 
d="M173 484v-223h-59v223h-71v54h199v-54h-69zM448 414l-60 -154l-66 160v-158h-55v277h67l53 -143l52 143h65v-277h-56v152z" />
    <glyph glyph-name="guilsinglright" unicode="&#x203a;" horiz-adv-x="230" 
d="M143 304l-102 47v60l156 -77v-59l-156 -81v62z" />
    <glyph glyph-name="guillemotleft" unicode="&#xab;" horiz-adv-x="374" 
d="M95 302l102 -48v-60l-156 77v59l156 81v-62zM243 302l102 -48v-60l-156 77v59l156 81v-62z" />
    <glyph glyph-name="guillemotright" unicode="&#xbb;" horiz-adv-x="386" 
d="M302 304l-102 47v60l156 -77v-59l-156 -81v62zM154 304l-102 47v60l156 -77v-59l-156 -81v62z" />
    <glyph glyph-name="bar" unicode="\" horiz-adv-x="1313" 
d="M43 506h1227v-325h-1227v325zM967 448h-56v-189h32v122h3l9 -122h58v189h-32v-122h-3zM461 448v-189h79l11 21v62l-8 14v3l8 14v55l-11 20h-79zM807 428v-148l10 -21h67l12 21v148l-11 20h-68zM252 448v-189h38v83h11v-83h41v76l-15 21v3l15 20v49l-11 20h-79zM1165 390
h38v38l-10 20h-66l-11 -20v-66l12 -20l37 -9v-38h-10v28h-39v-43l11 -21h65l11 21v72l-13 21l-35 8v33h10v-24zM237 259v69l-26 120h-41l-23 -120v-69h37v36h13v-36h40zM445 259v69l-24 120h-41l-23 -120v-69h38v36h12v-36h38zM659 340h26v33h-26v35h26v40h-64v-189h64v42
h-26v39zM767 337h24v33h-24v38h24v40h-63v-189h39v78zM1045 408v-149h39v149h21v40h-81v-40h21zM132 301h-22v147h-38v-189h60v42zM606 259v189h-39v-189h39zM845 295v119h11v-119h-11zM184 323v19l6 50h2l5 -50v-19h-13zM395 323v19l5 50h3l4 -50v-19h-12zM500 342h11v-47
h-11v47zM500 373v41h11v-41h-11zM290 373v41h11v-41h-11z" />
    <glyph glyph-name="numbersign" unicode="#" horiz-adv-x="494" 
d="M178 201h111l33 155h-113zM337 202h93v-63h-104l-30 -139h-47l28 139h-111l-29 -139h-48l28 139h-89v63h102l30 153h-95v63h109l25 136h50l-26 -136h110l28 136h48l-27 -136h84v-63h-97z" />
    <glyph glyph-name="underscore" unicode="_" horiz-adv-x="320" 
d="M330 -84q-80 6 -157 6q-89 0 -179 -6v67q52 -4 97.5 -6t89.5 -2q38 0 74.5 2t74.5 6v-67z" />
    <glyph glyph-name="caron" unicode="&#x2c7;" horiz-adv-x="435" 
d="M128 584h44l74 -63l72 63h43l-82 -92h-68z" />
    <glyph glyph-name="quotedblbase" unicode="&#x201e;" horiz-adv-x="291" 
d="M146 63q0 -16 -5 -33.5t-13 -34.5t-19.5 -32t-23.5 -26q-17 -15 -30 -15l-5 19q49 17 50 59q-13 -5 -23 -5q-24 0 -38 23q-13 19 -13 46t16.5 46t43.5 19t43.5 -19t16.5 -47zM275 63q0 -16 -5 -33.5t-13 -34.5t-19.5 -32t-23.5 -26q-17 -15 -30 -15l-5 19q49 17 50 59
q-13 -5 -23 -5q-24 0 -38 23q-13 19 -13 46t16.5 46t43.5 19t43.5 -19t16.5 -47z" />
    <glyph glyph-name="quotesinglbase" unicode="&#x201a;" horiz-adv-x="188" 
d="M151 68q0 -16 -4.5 -33.5t-13 -34.5t-19.5 -32t-23 -26q-18 -15 -31 -15l-5 19q49 17 50 59q-12 -5 -22 -5q-25 0 -39 23q-12 19 -12 46t16 46t43 19q28 0 44 -19t16 -47z" />
    <glyph glyph-name="yen" unicode="&#xa5;" horiz-adv-x="495" 
d="M435 118h-147v-188q0 -21 3 -32.5t9 -17.5t15.5 -7.5t22.5 -1.5v-42h-179v42h11q10 0 16.5 4t10.5 27t5.5 73.5t2.5 142.5h-137v47h138v39h-138v47h137q-13 37 -27.5 75.5t-32.5 82.5t-39.5 94t-48.5 110q-8 19 -16.5 23.5t-25.5 4.5v42h193v-42l-7 1q-36 0 -36 -19
q0 -24 107 -309q107 285 107 309q0 18 -42 18v42h144v-42h-7q-9 0 -15 -3t-13 -14.5t-17 -35t-27 -64.5l-73 -177q-7 -16 -16.5 -40t-23.5 -56h146v-47h-147v-39h147v-47z" />
    <glyph glyph-name="endash" unicode="&#x2013;" horiz-adv-x="415" 
d="M369 244q-78 6 -155 6q-89 0 -177 -6v76q51 -4 96 -6.5t89 -2.5q38 0 73.5 2t73.5 7v-76z" />
    <glyph glyph-name="emdash" unicode="&#x2014;" horiz-adv-x="690" 
d="M651 244q-144 6 -285 6q-84 0 -164 -1.5t-162 -4.5v76q94 -4 177 -6.5t164 -2.5q69 0 135 2t135 7v-76z" />
    <glyph glyph-name="sterling" unicode="&#xa3;" horiz-adv-x="462" 
d="M460 -171h-429v42h15q10 0 16 2.5t9 12t3.5 29t0.5 52.5v25t-0.5 33.5t-1.5 64t-2 116.5h-53v40h53v33h-53v40h53v85q0 61 12.5 114t39 92t68 61t100.5 22q36 0 65 -10t49 -27t31 -40t11 -49q0 -27 -16.5 -49t-43.5 -22q-52 0 -52 63q0 27 6.5 41.5t29.5 23.5
q-24 27 -77 27q-63 0 -94.5 -46.5t-31.5 -125.5v-160h239v-40h-239v-33h239v-40h-242v-238q0 -16 1 -33t5 -31.5t10.5 -23.5t17.5 -9h196q26 0 26 55h39v-97z" />
    <glyph glyph-name="exclam" unicode="!" horiz-adv-x="204" 
d="M92 686q29 0 46 -18.5t17 -46.5q0 -4 -0.5 -8.5t-1.5 -9.5q-7 -42 -14.5 -86t-14 -85.5t-11 -78.5t-5.5 -65q-1 -20 -1.5 -42t-0.5 -48h-28q0 46 -1.5 80.5t-4.5 65.5t-8.5 63.5t-13.5 75.5q-9 47 -14.5 73.5t-7.5 40t-2.5 17.5t-0.5 6q0 29 19.5 47.5t47.5 18.5zM93 133
q26 0 43 -20t17 -46q0 -27 -17 -47t-43 -20t-43 20t-17 47q0 26 17 46t43 20z" />
    <glyph glyph-name="quotedbl" unicode="&#x22;" horiz-adv-x="249" 
d="M198 634q0 -11 -5 -31q-27 -107 -27 -157h-14q0 47 -30 157q-5 18 -5 29q0 20 11 35.5t30 15.5q40 0 40 -49zM102 634q0 -11 -5 -31q-27 -107 -27 -157h-14q0 47 -30 157q-5 18 -5 29q0 20 11 35.5t30 15.5q40 0 40 -49z" />
    <glyph glyph-name="Eth" unicode="&#xd0;" horiz-adv-x="478" 
d="M447 80q0 -56 -13.5 -102.5t-38 -79.5t-60.5 -51t-81 -18h-259v42h10q10 0 17 2.5t11 13.5t6 34.5t2.5 65.5t0.5 105.5t1 155.5h-54v54h54v25q0 286 -9 301q-4 9 -13.5 11t-25.5 2v42h280q40 0 71.5 -22t54 -61t34.5 -92t12 -114v-314zM164 248h-39q0 -160 6 -308v-14
q0 -8 1 -17.5t4 -18t9 -14t17 -5.5h65q56 0 90 41t34 106v451q0 79 -32 126t-92 47h-65q-24 0 -29 -29q-1 -4 -2 -38.5t-2.5 -82t-2.5 -98t-1 -86.5v-6h39v-54z" />
    <glyph glyph-name="multiply" unicode="&#xd7;" horiz-adv-x="1000" 
 />
    <glyph glyph-name="Yacute" unicode="&#xdd;" horiz-adv-x="495" 
d="M481 641h-7q-9 0 -15 -3t-13 -14.5t-17 -35t-27 -64.5l-73 -177q-7 -16 -16.5 -40t-23.5 -56q0 -37 -0.5 -78t-0.5 -83v-83v-77q0 -21 3 -32.5t9 -17.5t15.5 -7.5t22.5 -1.5v-42h-179v42h11q8 0 13.5 1.5t9.5 12t6 33.5t3.5 64.5t2.5 106t2 158.5q-13 37 -28 76t-33 83.5
t-40 95.5t-49 111q-8 19 -16.5 23.5t-25.5 4.5v42h193v-42l-7 1q-36 0 -36 -19q0 -24 107 -309q107 285 107 309q0 18 -42 18v42h144v-42zM335 820l-133 -92h-43l98 92h78z" />
    <glyph glyph-name="yacute" unicode="&#xfd;" horiz-adv-x="371" 
d="M358 403h-8q-23 0 -32 -28q-3 -10 -9.5 -37t-16 -63.5t-19.5 -78.5t-20 -82t-18 -73.5t-13 -52.5q-12 -49 -25 -86t-29 -62t-37.5 -37.5t-50.5 -12.5q-60 0 -95 37t-35 98q0 25 17 44t43 19q25 0 42 -20t17 -46q0 -49 -41 -63q0 -27 52 -27q17 0 29.5 8t22.5 27t19 49.5
t19 75.5q-4 11 -12.5 41t-20.5 69t-25 83t-25 83t-21 68t-12 39q-4 10 -7 15.5t-7 8.5t-10.5 3.5t-16.5 0.5v42h179v-42h-10q-35 0 -35 -21q0 -10 4 -34.5t12.5 -59.5t21.5 -79.5t31 -93.5q13 42 24.5 83t19.5 76.5t12.5 62t4.5 40.5q0 15 -9 20.5t-34 5.5v42h124v-42z
M275 582l-133 -92h-43l98 92h78z" />
    <glyph glyph-name="Scaron" unicode="&#x160;" horiz-adv-x="344" 
d="M321 -6q0 -41 -15 -74t-40 -55.5t-56 -34.5t-63 -12q-47 0 -83 29.5t-51 84.5l31 8q10 -34 35.5 -57t59.5 -23q51 0 72 32t21 89q0 60 -26.5 122.5t-80.5 137.5t-80 149t-26 134q0 39 11.5 70.5t31 53.5t46.5 34t58 12q32 0 72 -34v42h38v-128h-38q0 35 -19 56.5
t-53 21.5q-60 0 -60 -98q0 -118 107 -276q54 -79 81 -147t27 -137zM57 822h44l74 -63l72 63h43l-82 -92h-68z" />
    <glyph glyph-name="scaron" unicode="&#x161;" horiz-adv-x="302" 
d="M148 455q24 0 46 -9t36 -35v42h38v-128h-38q0 35 -20.5 61.5t-51.5 26.5q-50 0 -50 -51q0 -15 5.5 -26.5t17.5 -21.5t31 -20.5t47 -23.5q45 -21 63.5 -56t18.5 -86q0 -30 -12 -55t-33 -43.5t-49 -29t-59 -10.5q-25 0 -48 8.5t-41.5 24.5t-30 39.5t-13.5 53.5l31 9
q5 -42 33.5 -67.5t65.5 -25.5q28 0 48 21t20 51q0 34 -13 51.5t-33.5 29.5t-46.5 24t-51 36q-20 18 -28 45.5t-8 54.5q0 23 9.5 43t26 35t39.5 23.5t50 8.5zM36 584h44l74 -63l72 63h43l-82 -92h-68z" />
    <glyph glyph-name="Zcaron" unicode="&#x17d;" horiz-adv-x="335" 
d="M339 -171h-339v42l6 17q4 12 14 47.5t24.5 86.5t31.5 112.5t35 125.5t35 126t31 114t24 89.5t14 51.5h-125q-13 0 -19.5 -16t-6.5 -37h-39v95h284v-42q0 1 -6 -17q-23 -71 -50 -162t-59 -203q-34 -120 -60 -216.5t-44 -171.5h183q13 0 20 18t7 37h39v-97zM52 822h44
l74 -63l72 63h43l-82 -92h-68z" />
    <glyph glyph-name="zcaron" unicode="&#x17e;" horiz-adv-x="377" 
d="M321 0h-308v42q46 73 91 162.5t90 198.5h-116q-28 0 -26 -54h-39v96h303v-42q-116 -203 -187 -361h127q27 0 26 55h39v-97zM73 584h44l74 -63l72 63h43l-82 -92h-68z" />
    <glyph glyph-name="Euro" unicode="&#x20ac;" horiz-adv-x="462" 
d="M407 206h-239v-198q0 -66 34 -106.5t92 -40.5q88 0 111 71h31q-39 -113 -143 -113q-57 0 -98.5 19t-69 52.5t-41 79.5t-13.5 100v136h-53v40h53v33h-53v40h53v85q0 61 12.5 114t39 92t68 61t100.5 22q36 0 65 -10t49 -27t31 -40t11 -49q0 -27 -16.5 -49t-43.5 -22
q-52 0 -52 63q0 27 6.5 41.5t29.5 23.5q-24 27 -77 27q-62 0 -94 -46.5t-32 -125.5v-160h239v-40h-239v-33h239v-40z" />
    <glyph glyph-name="Thorn" unicode="&#xde;" horiz-adv-x="416" 
d="M168 685l4 -42q-3 1 -11 1q-22 0 -26 -22.5t-4 -62.5q0 -27 1.5 -56.5t3.5 -55.5h93q78 0 118.5 -52t40.5 -145q0 -87 -42 -140.5t-123 -53.5h-78q0 -63 1 -98t3 -51.5t3.5 -20t3.5 -4.5q5 -4 13 -7.5t25 -3.5v-42h-179v42h10q14 0 22 6.5t11.5 33.5t4.5 81t1 148
q0 117 -0.5 200t-2 138.5t-5 88.5t-9 49.5t-13.5 21.5t-19 5v42h153zM183 405q-16 0 -23.5 -19.5t-10.5 -58t-3 -96t-1 -133.5h57q45 0 67.5 30.5t22.5 81.5v74q0 54 -24 87.5t-66 33.5h-19z" />
    <glyph glyph-name="eth" unicode="&#xf0;" horiz-adv-x="363" 
d="M182 419q-66 0 -66 -109v-164q0 -41 16.5 -68t42.5 -27q42 0 62.5 69.5t20.5 199.5v47q-30 52 -76 52zM156 471q60 0 101 -70q-2 84 -13 143t-30.5 100.5t-47.5 69t-64 47.5l6 30q56 -17 101 -62t76.5 -110t48.5 -146.5t17 -171.5q0 -65 -11.5 -120t-34 -95t-55 -63
t-75.5 -23q-36 0 -65.5 20t-51.5 54t-34 78.5t-12 93.5q0 44 11 84.5t30.5 72t45.5 50t57 18.5z" />
    <glyph glyph-name="thorn" unicode="&#xfe;" horiz-adv-x="385" 
d="M206 452q34 0 63 -16.5t50.5 -43.5t33.5 -63t12 -75v-65q0 -40 -12.5 -76t-34 -63.5t-50.5 -43.5t-62 -16q-40 0 -67 39q-1 -32 -1 -52v-39q0 -41 2.5 -63.5t8 -33t14 -12.5t21.5 -2v-42h-178v42q29 0 37 10t8 42q0 13 -0.5 29.5t-0.5 38.5v69v91t0.5 100t0.5 94.5v75.5
v44q0 160 -3 222q-4 21 -10.5 24.5t-31.5 3.5v42h138q-1 -21 -1 -46v-53q0 -44 0.5 -91t1.5 -90q29 19 61 19zM206 411q-28 0 -45.5 -24.5t-17.5 -54.5v-195q0 -57 18.5 -81t44.5 -24t44.5 24t18.5 54v222q0 30 -17.5 54.5t-45.5 24.5z" />
    <glyph glyph-name="backslash" horiz-adv-x="253" 
d="M83 730q8 -70 23.5 -165.5t37.5 -217.5q24 -134 45.5 -245t41.5 -204h-49q-23 174 -60 381t-88 451h49z" />
    </font>
</defs>
</svg>
